<?xml version="1.0" encoding="utf-8"?>
<!-- Generator: Adobe Illustrator 23.0.4, SVG Export Plug-In . SVG Version: 6.00 Build 0)  -->
<svg version="1.1" id="Layer_1" xmlns="http://www.w3.org/2000/svg" xmlns:xlink="http://www.w3.org/1999/xlink" x="0px" y="0px"
	 viewBox="0 0 425.9 595.3" style="enable-background:new 0 0 425.9 595.3;" xml:space="preserve">
<style type="text/css">
	.st0{fill-rule:evenodd;clip-rule:evenodd;fill:#E56A70;}
	.st1{fill:#013233;}
	.st2{fill:none;}
	.st3{fill:#E54A52;stroke:#000000;stroke-width:5.6693;stroke-miterlimit:10;}
	.st4{fill-rule:evenodd;clip-rule:evenodd;fill:#FFE19E;stroke:#000000;stroke-width:5.6693;stroke-miterlimit:10;}
	.st5{fill:#FFD985;stroke:#000000;stroke-width:5.6693;stroke-miterlimit:10;}
	.st6{fill:#ED1E27;stroke:#000000;stroke-width:5.6693;stroke-miterlimit:10;}
	.st7{fill:#5063AE;stroke:#000000;stroke-width:5.6693;stroke-miterlimit:10;}
	.st8{fill:none;stroke:#000000;stroke-width:5.6693;stroke-miterlimit:10;}
	.st9{fill-rule:evenodd;clip-rule:evenodd;fill:#ED1E27;stroke:#000000;stroke-width:5.6693;stroke-miterlimit:10;}
	.st10{fill-rule:evenodd;clip-rule:evenodd;fill:#5063AE;stroke:#000000;stroke-width:5.6693;stroke-miterlimit:10;}
	.st11{fill-rule:evenodd;clip-rule:evenodd;stroke:#000000;stroke-miterlimit:10;}
	.st12{fill-rule:evenodd;clip-rule:evenodd;fill:#FFE19E;stroke:#000000;stroke-width:4.7525;stroke-miterlimit:10;}
	.st13{fill-rule:evenodd;clip-rule:evenodd;fill:#FFDF98;}
	.st14{fill-rule:evenodd;clip-rule:evenodd;fill:#FFFFFF;}
	.st15{fill-rule:evenodd;clip-rule:evenodd;}
	.st16{fill-rule:evenodd;clip-rule:evenodd;fill:#E2CB98;}
</style>
<g id="img">
	<path class="st5" d="M401.4,31.4c0-11.2-9.1-20.3-20.3-20.3H43.7c-11.2,0-20.3,9.1-20.3,20.3v517.8c0,11.2,9.1,20.3,20.3,20.3
		h337.4c11.2,0,20.3-9.1,20.3-20.3L401.4,31.4L401.4,31.4z"/>
	<path class="st6" d="M418.3,29.5c0-12.2-9.9-22.1-22.1-22.1H28.6c-12.2,0-22.1,9.9-22.1,22.1V99H144l68.4-26.9h205.9V29.5z"/>
	<path class="st3" d="M219.8,97.5l-74.5,29H10.6v439c0,12,9.7,21.7,21.7,21.7h360.2c12,0,21.7-9.7,21.7-21.7v-468H219.8z"/>
	<path class="st7" d="M122.3,53.2c0-17-13.7-30.7-30.7-30.7S60.9,36.2,60.9,53.2s13.7,30.7,30.7,30.7S122.3,70.1,122.3,53.2z"/>
	<path class="st3" d="M174.6,35.7c0-7.3-6-13.3-13.3-13.3s-13.3,6-13.3,13.3S154,49,161.3,49C168.7,49,174.6,43.1,174.6,35.7z"/>
	<path class="st3" d="M218.6,35.7c0-7.3-6-13.3-13.3-13.3s-13.3,6-13.3,13.3S198,49,205.3,49C212.7,49,218.6,43.1,218.6,35.7z"/>
	<line class="st8" x1="375.2" y1="99" x2="375.2" y2="588"/>
	<line class="st8" x1="375.2" y1="153.2" x2="414.2" y2="153.2"/>
	<line class="st8" x1="375.2" y1="540.4" x2="414.2" y2="540.4"/>
	<path class="st9" d="M60.4,164.7h263.3c10,0,18.1,8.1,18.1,18.1V399c0,9.8-8.1,18.1-18.1,18.1H89.9c-6.8,0-21-15.9-25.9-20.6
		c-0.8-0.8-1.5-1.5-2.3-2.3c-4.2-4.2-8.5-8.3-12.5-12.7c-2.8-2.8-7-7.4-7-11.3V182.9C42.3,172.8,50.4,164.7,60.4,164.7L60.4,164.7z"
		/>
	<path class="st10" d="M110.1,368.8c9.4,0,17,7.7,17,17.2c0,9.4-7.6,17.2-17,17.2s-17.2-7.7-17.2-17.2
		C92.9,376.6,100.7,368.8,110.1,368.8L110.1,368.8z"/>
	<path class="st11" d="M235,372.5h65c1.1,0,2.3,0.9,2.3,2.3l0,0c0,1.3-1.1,2.5-2.3,2.5h-65c-1.3,0-2.3-1.1-2.3-2.5l0,0
		C232.8,373.5,233.7,372.5,235,372.5L235,372.5z"/>
	<path class="st11" d="M235,384.8h65c1.1,0,2.3,1.1,2.3,2.5l0,0c0,1.3-1.1,2.3-2.3,2.3h-65c-1.3,0-2.3-0.9-2.3-2.3l0,0
		C232.8,385.9,233.7,384.8,235,384.8L235,384.8z"/>
	<path class="st11" d="M235,397.3h65c1.1,0,2.3,0.9,2.3,2.3l0,0c0,1.3-1.1,2.5-2.3,2.5h-65c-1.3,0-2.3-1.1-2.3-2.5l0,0
		C232.8,398.2,233.7,397.3,235,397.3L235,397.3z"/>
	<path class="st12" d="M68,184.1h249.4c5.6,0,9.9,5.2,9.9,11.6v128.5c0,6.4-4.3,11.6-9.9,11.6H68c-5.6,0-9.9-5.2-9.9-11.6V195.7
		C58.1,189.3,62.4,184.1,68,184.1L68,184.1z"/>
</g>
</svg>
