<?xml version="1.0" encoding="utf-8"?>
<!-- Generator: Adobe Illustrator 23.0.4, SVG Export Plug-In . SVG Version: 6.00 Build 0)  -->
<svg version="1.1" id="Layer_1" xmlns="http://www.w3.org/2000/svg" xmlns:xlink="http://www.w3.org/1999/xlink" x="0px" y="0px"
	 viewBox="0 0 425.9 595.3" style="enable-background:new 0 0 425.9 595.3;" xml:space="preserve">
<style type="text/css">
	.st0{fill:#E54A52;stroke:#000000;stroke-width:5.6693;stroke-miterlimit:10;}
	.st1{fill-rule:evenodd;clip-rule:evenodd;fill:#FFE19E;stroke:#000000;stroke-width:5.6693;stroke-miterlimit:10;}
	.st2{fill-rule:evenodd;clip-rule:evenodd;fill:#5063AE;stroke:#000000;stroke-width:5.6693;stroke-miterlimit:10;}
	.st3{fill-rule:evenodd;clip-rule:evenodd;fill:#FFFFFF;}
	.st4{fill-rule:evenodd;clip-rule:evenodd;fill:#FFDF98;}
	.st5{fill-rule:evenodd;clip-rule:evenodd;fill:#FFE19E;}
	.st6{fill-rule:evenodd;clip-rule:evenodd;}
	.st7{fill-rule:evenodd;clip-rule:evenodd;fill:#FFD98D;}
</style>
<g id="img">
	<path class="st0" d="M280.1,120.9h134.7v439c0,12-9.7,21.7-21.7,21.7H32.9c-12,0-21.7-9.7-21.7-21.7v-468h194.4L280.1,120.9z"/>
	<path class="st1" d="M61,354.4h191.6c1.9,0,3.6,1.7,3.6,3.6v52.4c0,2.1-1.7,3.8-3.6,3.8H61c-1.9,0-3.6-1.7-3.6-3.8V358
		C57.5,356.1,59.2,354.4,61,354.4L61,354.4z"/>
	<path class="st1" d="M66.4,157h297.4c6.6,0,11.8,6.2,11.8,13.8v153.3c0,7.6-5.2,13.8-11.8,13.8H66.4c-6.7,0-11.8-6.2-11.8-13.8
		V170.8C54.5,163.2,59.7,157,66.4,157L66.4,157z"/>
	<path class="st2" d="M-214.1,386h35c3.1,0,5.7,2.5,5.7,5.6l0,0c0,3.1-2.5,5.6-5.7,5.6h-35c-3.1,0-5.7-2.5-5.7-5.6l0,0
		C-219.7,388.5-217.2,386-214.1,386L-214.1,386z"/>
	<path class="st2" d="M-151.6,386h35c3.1,0,5.6,2.5,5.6,5.6l0,0c0,3.1-2.5,5.6-5.6,5.6h-35c-3.1,0-5.7-2.5-5.7-5.6l0,0
		C-157.3,388.5-154.8,386-151.6,386L-151.6,386z"/>
	<g>
		<g>
			<path class="st3" d="M333.5,85.2c0.2-0.2,0.3-0.5,0.5-0.6c0.7-0.3,1.4-0.3,2,0v0.1c-0.2,0.3-0.5,0.5-0.7,0.7
				c-0.6,0.6-1.2,1.2-1.9,1.9c-0.2-0.3-0.2-0.7-0.3-1C333.2,85.9,333.4,85.6,333.5,85.2z"/>
			<path class="st3" d="M336.1,84.6C336.1,84.7,336.1,84.7,336.1,84.6C336.1,84.7,336.1,84.7,336.1,84.6L336.1,84.6L336.1,84.6z"/>
			<path class="st3" d="M293.6,87c-0.1-0.5-0.3-1-0.4-1.6c-0.1-0.5-0.2-0.9-0.3-1.3c0.1-0.1,0.2,0,0.2,0c0.7,0.1,1.2,0.7,1.3,1.5
				c0,0.5,0.1,1-0.2,1.3c0,0.1-0.2,0.2-0.1,0.4c-0.1,0.1-0.3,0.3-0.4,0.4C293.7,87.3,293.7,87.2,293.6,87z"/>
		</g>
		<path class="st4" d="M287.6,95.7"/>
		<g>
			<g>
				<polygon class="st5" points="334.1,77.6 334.1,77.6 334.1,77.6 				"/>
				<path class="st5" d="M333.8,79.2c0,0,0.1,0,0.1,0c0,0,0.1,0,0.1,0l0,0c0,0,0.1,0,0.1,0l0,0c0,0,0.1,0,0.1,0l0,0c0,0,0.1,0,0.1,0
					l0,0c0,0,0.1,0,0.1,0l0,0c0,0,0.1,0,0.1,0l0,0c0,0,0.1,0,0.1,0l0,0c0,0,0.1,0,0.1,0l0,0c0,0,0.1,0,0.1,0l0,0c0,0,0.1,0,0.1,0
					l0,0c0,0,0.1,0,0.1,0l0,0c0,0,0.1,0,0.1,0l0,0l0,0c0,0,0.1,0,0.1,0l0,0l0,0c0,0,0.1,0,0.1,0l0,0l0,0c0.2,0,0.3,0,0.5-0.2
					c0,0,0,0,0,0l0,0c0,0,0,0,0,0c0,0,0,0,0.1,0l0,0l0,0c0,0,0.1,0,0.1,0c0,0,0,0,0,0l0,0c0,0,0,0,0,0c0,0,0.1,0,0.1,0c0,0,0,0,0,0
					l0,0c0,0,0,0,0,0c0,0,0.1,0,0.1,0c0,0,0,0,0,0l0,0c0,0,0,0,0,0c0,0,0.1,0,0.1,0c0,0,0,0,0,0l0,0c0,0,0,0,0,0c0,0,0.1,0,0.1,0
					c0,0,0,0,0,0l0,0c0,0,0,0,0,0c0,0,0.1,0,0.1,0c0,0,0,0,0,0l0,0c0,0,0,0,0,0c0,0,0.1,0,0.1,0l0,0c0.1,0,0.2-0.1,0.3-0.1
					c0.5-0.2,0.9-0.3,1.4-0.5c0.3-0.1,0.7-0.3,1-0.4c0.1,0,0.1-0.1,0.1-0.2c0,0,0-0.1-0.1-0.1l0,0c0,0,0,0,0-0.1l0,0
					c0-0.1-0.1-0.1-0.1-0.2l0,0c0,0,0,0,0-0.1l0,0c0,0,0,0,0-0.1c0,0,0,0,0,0c0,0,0-0.1,0-0.1l0,0c0,0,0,0,0-0.1l0,0
					c-0.1-0.1-0.1-0.2-0.2-0.2c-0.4-0.6-0.7-1.2-1.1-1.8c0-0.1-0.1-0.2-0.2-0.3c-0.3,0.3-0.6,0.6-0.8,0.9c-0.1,0.1-0.2,0.2-0.3,0.2
					c-0.3,0.3-0.6,0.6-0.9,0.9l0,0c-0.1,0,0,0.1-0.1,0.1l0,0c0,0,0,0-0.1,0.1l0,0c0,0,0,0-0.1,0.1l0,0c0,0,0,0-0.1,0.1c0,0,0,0,0,0
					l0,0c0,0,0,0,0,0c0,0-0.1,0-0.1,0.1c0,0,0,0,0,0l0,0c0,0,0,0,0,0c0,0,0,0.1-0.1,0.1l0,0c0,0,0,0-0.1,0.1l0,0c0,0,0,0-0.1,0.1
					l0,0c0,0,0,0-0.1,0.1l0,0c-0.1,0-0.1,0.1-0.1,0.1l0,0c0,0,0,0-0.1,0.1l0,0c0,0,0,0-0.1,0.1l0,0c0,0-0.1,0-0.1,0.1l0,0
					c-0.1,0-0.1,0.1-0.1,0.1l0,0c0,0,0,0-0.1,0.1l0,0c0,0,0,0-0.1,0.1c0,0,0,0,0,0l0,0c0,0,0,0,0,0c-0.1,0-0.1,0.1-0.2,0.2l0,0
					c0,0,0,0-0.1,0.1l0,0c0,0,0,0-0.1,0.1l0,0c0,0,0,0-0.1,0.1c0,0,0,0,0,0l0,0c0,0,0,0,0,0c0,0,0,0.1-0.1,0.1l0,0c0,0,0,0-0.1,0
					l0,0c0,0,0,0-0.1,0.1l0,0c0,0,0,0-0.1,0.1l0,0l0,0c0,0,0,0-0.1,0c0,0,0,0,0,0l0,0c0,0,0,0,0,0c0,0,0,0.1-0.1,0.1l0,0
					c0,0,0,0-0.1,0l0,0c0,0,0,0-0.1,0.1c-0.2,0.2-0.4,0.4-0.6,0.6c-0.2,0.2-0.2,0.2-0.1,0.5C333.4,79.3,333.4,79.3,333.8,79.2z"/>
				<path class="st5" d="M313.7,88.2c-0.1-0.1-0.1-0.2-0.2-0.2c-0.1-0.1-0.2-0.2-0.3-0.4c-1.1-1.1-2.5-1.6-4.1-1.5
					c-1.2,0-2.3,0.4-3.4,1c-0.1,0.1-0.2,0.1-0.3,0.2c-0.3,0.1-0.6,0.4-0.8,0.6c0,0,0,0,0,0.1c0,0,0,0,0,0c-0.3,0.2-0.5,0.4-0.7,0.7
					c-0.7,0.8-1.2,1.8-1.5,2.8c-0.3,1.3-0.3,2.5,0.2,3.7c0.1,0.2,0.1,0.3,0.3,0.5c0,0,0,0,0,0l0,0c0,0,0,0,0,0c0,0,0,0,0,0.1l0,0
					c0,0,0,0.1,0.1,0.1c0,0,0,0,0,0l0,0c0,0,0,0,0,0c0,0,0,0,0,0.1l0,0c0,0,0,0,0,0.1l0,0c0,0,0,0.1,0.1,0.2l0,0c0,0,0,0.1,0.1,0.1
					c0,0,0.1,0.1,0.1,0.1c0.9,1,2,1.6,3.3,1.8c1,0.1,2.1,0,3-0.3c0.8-0.3,1.5-0.6,2.1-1.2c0.1,0,0.2-0.2,0.3-0.2
					c0.2-0.1,0.3-0.2,0.5-0.3c1-1,1.7-2.2,2-3.7c0-0.2,0-0.3,0.1-0.5c0,0,0-0.1,0-0.1C314.6,90.5,314.4,89.3,313.7,88.2
					C313.7,88.2,313.7,88.2,313.7,88.2z"/>
				<path class="st5" d="M332.1,96.3c0-0.2,0.1-0.2-0.2-0.3c-1.2-0.3-2.3-0.7-3.3-1.4c-0.4-0.3-0.8-0.6-1.2-1.1c0,0,0-0.1-0.1-0.1
					l0,0c0,0,0,0,0-0.1c0,0,0,0,0,0l0,0c0,0,0,0,0,0c0,0,0-0.1-0.1-0.1c0,0,0,0,0,0l0,0c0,0,0,0,0,0c-0.1-0.1-0.1-0.2-0.2-0.3
					c-0.4-0.5-0.7-1-0.9-1.5c-0.1-0.1-0.2-0.2-0.3-0.3c-1.1-0.6-2.2-1.1-3.3-1.7c0,0-0.1,0-0.1,0c0,0,0,0-0.1,0c0,0-0.1,0-0.1,0
					c0,0,0,0-0.1,0c0,0-0.1,0-0.1,0c0,0,0,0-0.1,0c0,0-0.1,0-0.1-0.1c0,0-0.1-0.1-0.1-0.1c0,0-0.1,0-0.1,0c0,0,0,0,0,0c0,0,0,0,0,0
					c0,0-0.1,0-0.1-0.1c0,0-0.1,0-0.1,0c0,0,0,0-0.1,0c0,0,0,0-0.1,0c0,0-0.1,0-0.1,0c0,0-0.1,0-0.1,0c0,0-0.1-0.1-0.1-0.1
					c0,0-0.1,0-0.1,0c0,0,0,0,0,0c0.7-0.6,1.4-1.2,2-1.8c0.9-0.8,1.9-1.7,2.8-2.4c0.2-0.2,0.4-0.3,0.5-0.5c0,0,0,0,0,0
					c0.2-0.1,0.3-0.2,0.5-0.4c0.1-0.1,0.3-0.2,0.4-0.4c0-0.1-0.1-0.1-0.1-0.2c-0.5-0.6-1-1.2-1.5-1.8c-0.3-0.3-0.6-0.7-0.9-1
					c0-0.1-0.1-0.1-0.2-0.2l0,0c0,0,0,0,0,0l0,0c0,0,0,0,0-0.1l0,0c0,0,0,0,0-0.1l0,0c0,0,0,0,0-0.1l0,0c0,0,0,0,0-0.1l0,0
					c0,0,0,0,0-0.1l0,0c0,0,0,0,0-0.1l0,0c0,0,0,0-0.1-0.1l0,0c0,0,0,0-0.1-0.1l0,0c0,0,0,0-0.1-0.1l0,0c0,0,0,0-0.1-0.1l0,0
					c0,0,0,0-0.1-0.1l0,0c-0.1-0.1-0.3-0.3-0.4-0.4c-0.2,0.2-0.4,0.5-0.6,0.7c0,0,0,0,0,0c0,0,0,0-0.1,0.1c0,0,0,0,0,0c0,0,0,0,0,0
					c0,0,0,0,0,0c0,0,0,0,0,0.1c0,0,0,0,0,0c0,0,0,0,0,0c0,0,0,0,0,0c0,0,0,0-0.1,0c0,0,0,0,0,0c0,0,0,0-0.1,0.1c0,0,0,0,0,0
					c0,0,0,0,0,0c0,0,0,0,0,0c0,0-0.1,0.1-0.1,0.1c-1.2,1.4-2.4,2.7-3.6,4.1c0-0.1,0-0.1,0-0.2c0-0.8,0-1.6,0.1-2.4
					c0-0.6,0-1.1,0.1-1.7c0-0.2,0-0.4,0-0.6c0-0.3,0-0.6,0-0.9c-0.5,0.1-1,0.2-1.6,0.3c-0.6,0.1-1.2,0.3-1.8,0.3c0,0,0,0,0,0
					c-0.1,0-0.1,0-0.2,0l0,0c0,0-0.1,0-0.2,0c0,0,0,0,0,0c0,0-0.1,0-0.1,0c0,0,0,0,0,0c-0.1,0-0.1,0-0.2,0l0,0c0,0-0.1,0-0.2,0
					c0,0,0,0,0,0c0,0-0.1,0-0.1,0c0,0,0,0,0,0c-0.1,0-0.1,0-0.2,0l0,0c0,0-0.1,0-0.2,0c0,0,0,0,0,0c0,0-0.1,0-0.1,0c0,0,0,0,0,0
					c-0.1,0-0.1,0-0.2,0l0,0c0,0-0.1,0-0.2,0c-0.2,0.1-0.4,0-0.5,0.2c-0.1,0.1-0.1,0.3-0.1,0.5c0,0,0,0,0,0
					c-0.1,0.2-0.1,0.5-0.1,0.8c0,0.2,0.1,0.2,0.3,0.2c0.3-0.1,0.7-0.1,1-0.2c0.3-0.1,0.4,0,0.3,0.3c0,0.5-0.1,1,0,1.4
					c0,0.1,0,0.1,0,0.2c0,0.2,0,0.3,0,0.5c0,0,0,0.1,0,0.1c0,0.2,0,0.3,0,0.5c0,0.2,0,0.3,0,0.5c0,0.7,0,1.4,0,2.2
					c0,0.2,0,0.4,0.2,0.5c0.2,0.3,0.4,0.5,0.5,0.9c0,0.1,0,0.2,0.1,0.3c0.4,0.8,0.6,1.7,0.6,2.7c0,0.5,0,0.9-0.1,1.4
					c-0.2,1.1-0.6,2.2-1.2,3.1c-0.2,0.4-0.4,0.7-0.3,1.1c0,0,0,0.1,0,0.1c0,0.7,0,1.4,0,2.1c0,0.2,0,0.2,0.2,0.2c0.4,0,0.8,0,1.1,0
					c0.5,0,1,0,1.5-0.1c0.2,0,0.4,0,0.6,0c0.1,0,0.2-0.1,0.2-0.2c0-0.3,0-0.6,0.1-0.9c0.2-2,0.4-4.1,0.6-6.1c0.1,0,0.2,0.1,0.3,0.1
					c2.4,1.5,4.8,3,7.2,4.5c0.2,0.1,0.5,0.3,0.7,0.4c0,0.1,0.1,0.2,0.2,0.2c1.2,0.8,2.4,1.5,3.6,2.3c0.1,0.1,0.2,0.1,0.3,0.1
					c0,0,0,0,0,0c0.2,0.2,0.5,0.3,0.7,0.5c0.2,0,0.1-0.1,0.1-0.2C331.8,98.6,331.9,97.4,332.1,96.3z"/>
				<path class="st5" d="M380.4,89.8C380.4,89.8,380.4,89.8,380.4,89.8c-0.1-0.1-0.2,0-0.2-0.1c0,0,0,0,0,0c-0.1-0.1-0.2,0-0.2-0.1
					c0,0,0,0,0,0c0,0-0.1,0-0.1,0c-0.8-0.3-1.6-0.5-2.4-0.8c-0.4-0.1-0.8-0.3-1.2-0.4c-0.2-0.1-0.2-0.1-0.3,0.2
					c0,0.1-0.1,0.2-0.1,0.4c0,0,0,0,0,0.1c0,0.1,0,0.1,0,0.1c0,0,0,0,0,0.1c0,0,0,0.1,0,0.1c-0.1,0.2-0.1,0.4-0.2,0.6
					c-0.1,0.1-0.1,0.2-0.2,0.3c-0.6,1.7-1.2,3.5-1.8,5.2c-0.1,0.4-0.3,0.8-0.4,1.1c0-0.1,0-0.1,0-0.2c-0.2-2.2-0.5-4.3-0.7-6.5
					c0-0.1,0-0.2-0.1-0.3c0,0,0-0.1,0-0.1c0,0,0-0.1,0-0.1c0,0,0-0.1,0-0.1c0-0.1,0-0.1,0-0.2c0,0,0-0.1,0-0.1c0-0.1,0-0.1,0-0.2
					c0-0.1-0.1-0.2,0-0.4c0-0.1,0-0.1,0-0.2c0,0,0,0,0,0c0-0.1,0-0.1,0-0.2c0,0,0-0.1,0-0.1c0-0.1,0-0.1,0-0.2c0,0,0-0.1,0-0.1
					c0-0.1,0-0.1,0-0.2c0,0,0-0.1,0-0.1c0-0.1,0-0.1,0-0.2c0,0,0,0,0,0c0-0.1,0-0.2,0-0.2l0,0l0,0c0-0.1-0.2,0-0.2-0.1c0,0,0,0,0,0
					c-0.1-0.1-0.2,0-0.2-0.1c0,0,0,0,0,0c-0.1-0.1-0.2,0-0.2-0.1c0,0,0,0,0,0c-0.1-0.1-0.2,0-0.2-0.1c0,0,0,0,0,0
					c-0.1-0.1-0.2,0-0.2-0.1c0,0,0,0,0,0c-0.1-0.1-0.2,0-0.2-0.1c0,0,0,0,0,0c-0.6-0.1-1.1-0.3-1.7-0.5c-0.9-0.3-1.7-0.5-2.6-0.8
					c-0.1,0-0.2,0-0.2,0.1c0,0.3-0.1,0.6-0.1,0.8c0,0.1,0,0.1-0.1,0.2c-0.1,0.1-0.1,0.2-0.1,0.3c0,0.1,0,0.2,0,0.3
					c0.3,0.2,0.6,0.3,1,0.4c0.2,0.1,0.3,0.2,0.2,0.4c-0.1,0.4-0.2,0.8-0.2,1.2c0,0,0,0.1,0,0.1c0,0.2,0,0.3,0,0.5
					c0,0.3-0.1,0.5-0.1,0.8c0,0.1,0,0.2,0.1,0.3c0.1,0.1,0.3,0.3,0.4,0.5c0.3,0.5,0.6,1,0.8,1.6c0,0.1,0,0.2,0,0.2
					c0.4,1.6,0.3,3.2-0.4,4.7c0,0,0,0.1,0,0.1c0,0.1,0,0.1-0.1,0.1c-0.1,0.2-0.2,0.4-0.3,0.6c-0.6,1-1.3,1.9-2.2,2.6
					c-0.2,0.2-0.5,0.4-0.5,0.7c-0.1,0.7-0.3,1.4-0.4,2.1c0,0.2,0,0.3,0.2,0.4c0.3,0.1,0.7,0.2,1,0.3c0.4,0.1,0.9,0.2,1.3,0.3
					c0.1,0,0.2,0.1,0.3,0c0,0,0,0,0,0c0.1,0.1,0.3,0.1,0.4,0.1c0.1,0,0.2,0.1,0.3,0c0,0,0-0.1,0-0.1c0.1-0.2,0.2-0.4,0.2-0.6
					c0.2-0.8,0.4-1.5,0.6-2.3c0.3-1.2,0.7-2.4,1-3.6c0.2-0.6,0.4-1.2,0.5-1.9c0,0,0,0.1,0,0.1c-0.2,1.7-0.2,3.5-0.4,5.2
					c0,0,0,0.1,0,0.1c0,0.1,0,0.1,0,0.2c-0.1,1.4-0.2,2.8-0.3,4.2c-0.1,0.4,0,0.8-0.1,1.2c0,0.1,0,0.3,0.1,0.4
					c0.3,0.1,0.6,0.2,0.8,0.3c0.6,0.2,1.1,0.5,1.7,0.7c0.2,0.1,0.4,0.2,0.6,0.2c0.1-0.2,0.2-0.4,0.3-0.6c0-0.1,0.1-0.2,0.1-0.2
					c0.2-0.5,0.5-1,0.7-1.6c0.2-0.4,0.3-0.8,0.5-1.1c0.1,0,0-0.1,0.1-0.2c0,0,0,0,0,0c0,0,0-0.1,0.1-0.1l0,0c0,0,0-0.1,0-0.1
					c0.3-0.6,0.5-1.2,0.8-1.8c0.2-0.4,0.4-0.9,0.6-1.3c0,0,0-0.1,0.1-0.1l0,0l0,0c0.1,0,0-0.1,0.1-0.2c0.1,0,0-0.1,0.1-0.2l0,0
					c0.1,0,0-0.1,0.1-0.2c0-0.1,0-0.1,0.1-0.2c0.4-0.8,0.7-1.6,1.1-2.5c0.2-0.4,0.4-0.9,0.6-1.3c0-0.1,0-0.1,0.1-0.2
					c0.4-0.8,0.7-1.7,1.1-2.5c0.2-0.4,0.3-0.8,0.6-1.2c0-0.1,0-0.1,0.1-0.2c0.3-0.6,0.5-1.2,0.8-1.8c0.2-0.5,0.5-1,0.7-1.5
					C380.5,89.8,380.5,89.8,380.4,89.8z M369.8,95.8C369.8,95.8,369.8,95.8,369.8,95.8C369.8,95.8,369.8,95.8,369.8,95.8
					C369.8,95.8,369.8,95.8,369.8,95.8z"/>
				<polygon class="st5" points="375.5,101.2 375.5,101.2 375.5,101.2 				"/>
				<path class="st5" d="M356.3,102.7c0-0.1,0-0.2,0-0.3c0,0,0,0,0-0.1c0.1-0.4,0-0.4-0.3-0.6c-0.7-0.4-1.3-1-1.8-1.6c0,0,0,0,0-0.1
					c0,0,0,0-0.1-0.1c-0.9-1.3-1.3-2.8-1.1-4.3c0.1-1.3,0.6-2.5,1.4-3.6c0.1-0.2,0.3-0.4,0.4-0.6c0,0,0,0,0,0c0,0,0,0,0,0l0,0
					c0,0,0,0,0-0.1c0,0,0,0,0,0l0,0c0,0,0,0,0,0c0,0,0.1,0,0.1-0.1c0.1-0.2,0.3-0.4,0.5-0.5c0.1-0.1,0.2-0.3,0.2-0.4
					c-0.1-0.9-0.1-1.7-0.1-2.6c0-0.4-0.1-0.9-0.1-1.3c0,0,0-0.1,0-0.1c0-0.8-0.1-1.6-0.1-2.4c0-0.4-0.1-0.9-0.1-1.3
					c0-0.2,0-0.3,0-0.5c0-0.1,0-0.2-0.2-0.2c-0.3,0-0.7-0.1-1-0.1c-0.6-0.1-1.2-0.1-1.8-0.2c-0.2,0-0.2,0-0.3,0.2
					c0,0.1,0,0.3-0.1,0.4c0,0,0,0,0,0.1c0,0,0,0.1,0,0.1c0,0,0,0-0.1,0c0,0,0,0.1-0.1,0.1c0,0.1,0,0.2-0.1,0.2c0,0,0,0,0,0.1
					c0,0.1,0,0.2-0.1,0.3c-0.1,0.3-0.1,0.6-0.2,0.9c-0.4,1.4-0.8,2.8-1.2,4.2c0,0,0,0,0,0c-0.1-1.4-0.2-2.8-0.3-4.3
					c0-0.1,0-0.1-0.1-0.2c-0.1-0.4-0.1-0.8-0.1-1.2c0-0.1,0-0.2-0.1-0.2c-0.1,0-0.2,0-0.3,0c-1.3-0.1-2.5-0.2-3.8-0.4
					c-0.1,0-0.1,0-0.2,0c-0.1,0-0.1,0-0.2,0.1c-0.1,0.2-0.1,0.5-0.2,0.7c0,0,0,0,0,0c-0.1,0.1-0.1,0.2-0.1,0.3
					c-0.1,0.4-0.2,0.9-0.4,1.3c0,0,0,0.1,0,0.1c0,0.1,0,0.2-0.1,0.2c0,0,0,0.1,0,0.1c0,0.1,0,0.2-0.1,0.2c-0.2,0.6-0.3,1.2-0.5,1.8
					c0,0,0,0.1,0,0.1c0,0.1,0,0.2-0.1,0.3c-0.1,0.4-0.2,0.9-0.3,1.3c-0.2,0.6-0.4,1.3-0.5,1.9c0,0.2,0.2,0.3,0.3,0.4
					c0.3,0.3,0.5,0.6,0.8,0.9c0.1,0.1,0.1,0.2,0,0.3c-0.5,0.4-1.1,0.9-1.6,1.3c-0.2,0.2-0.4,0.4-0.5,0.7c0,0.1,0,0.2,0,0.3
					c0,0.1,0,0.1,0,0.2c-0.2,0.6-0.3,1.1-0.5,1.7c-0.1,0.3-0.1,0.6-0.3,0.9c-0.1,0.2,0.1,0.2,0.2,0.3c0.7,0.2,1.4,0.4,2.1,0.6
					c0.4,0.1,0.8,0.3,1.2,0.3c0,0,0.1,0,0.1,0c0.2,0.1,0.4,0.1,0.5,0.1c0.2,0.1,0.2,0,0.2-0.1c0.1-0.3,0.2-0.7,0.3-1
					c0.1-0.4,0.2-0.8,0.3-1.2c0-0.1,0-0.1,0-0.2c0.1-0.4,0.2-0.8,0.3-1.2c0.2-0.8,0.4-1.6,0.7-2.5c0.1,0.1,0.1,0.2,0.2,0.3
					c0.4,1.2,0.9,2.4,1.3,3.6c0.1,0.1,0.1,0.3,0.1,0.4c0.1,0.2,0.1,0.5,0.3,0.7c0,0,0,0,0,0c0.1,0.2,0.1,0.4,0.2,0.6
					c0.1-0.1,0.1-0.2,0.2-0.2c0.2-0.5,0.4-0.9,0.7-1.4c0-0.1,0.1-0.1,0.1-0.2c0.2-0.4,0.4-0.8,0.6-1.2c0.2-0.4,0.4-0.7,0.5-1.1
					c0,0,0,0,0,0c0.1,0,0,0.1,0,0.1c0,0.1,0,0.2,0,0.3c0,0.8,0.1,1.6,0.1,2.4c0.1,1.2,0.1,2.4,0.2,3.6c0,0.3,0,0.7,0.1,1
					c0,0.2,0,0.5,0,0.7c0,0.2,0,0.2,0.2,0.3c0.5,0.1,1.1,0.3,1.6,0.4c0.5,0.1,1.1,0.3,1.6,0.4c0.3,0.1,0.5,0.1,0.8,0.2
					c0.1,0,0.2,0,0.2,0.1c0,0,0,0,0.1,0C356.3,103,356.3,102.9,356.3,102.7C356.3,102.8,356.3,102.7,356.3,102.7z"/>
				<path class="st5" d="M303.4,83c0-0.2-0.1-0.5-0.1-0.7c0-0.1,0-0.1,0-0.2l0,0c0,0,0-0.1-0.1-0.1c-0.3-1-0.9-1.8-1.6-2.6
					c-0.2-0.2-0.5-0.4-0.7-0.6c0-0.1-0.1,0-0.1-0.1l0,0c0,0-0.1,0-0.1-0.1c0,0,0,0-0.1-0.1l0,0c0,0-0.1,0-0.1-0.1c0,0,0,0,0,0l0,0
					c0,0,0,0,0,0c0,0-0.1,0-0.1-0.1l0,0c0,0,0,0-0.1,0l0,0c0,0-0.1,0-0.1-0.1c0,0,0,0,0,0l0,0l0,0c0,0-0.1,0-0.1-0.1l0,0
					c0,0-0.1,0-0.1-0.1c0,0,0,0,0,0l0,0c0,0,0,0,0,0c0,0-0.1,0-0.1-0.1l0,0c0,0-0.1,0-0.1-0.1c0,0,0,0,0,0c0,0-0.1,0-0.1-0.1l0,0
					c0,0-0.1,0-0.1-0.1c0,0,0,0,0,0c0,0-0.1,0-0.1-0.1c0,0,0,0,0,0l0,0c0,0,0,0,0,0c0-0.1-0.1,0-0.2-0.1l0,0
					c-0.5-0.2-0.9-0.3-1.4-0.4c-1.7-0.5-3.5-0.6-5.2-0.4c-0.5,0-1.1,0.1-1.6,0.2c0,0,0,0,0,0c-0.1,0-0.1,0-0.2,0c0,0,0,0,0,0
					c-0.1,0-0.1,0-0.2,0c0,0,0,0,0,0c0,0-0.1,0-0.1,0c0,0,0,0,0,0c-0.1,0-0.1,0-0.2,0l0,0c0,0-0.1,0-0.2,0c0,0,0,0,0,0
					c0,0-0.1,0-0.1,0c0,0,0,0,0,0c0,0-0.1,0-0.1,0c0,0,0,0,0,0c0,0-0.1,0-0.1,0c0,0-0.1,0-0.1,0c-1.8,0.4-3.6,1.1-5.3,1.9
					c0,0-0.1,0-0.1,0.1l0,0c0,0,0,0-0.1,0c0,0,0,0,0,0c0,0-0.1,0-0.1,0.1c0,0.1,0.1,0.2,0.2,0.3l0,0c0,0.1,0.1,0.2,0.1,0.3
					c0.2,0.5,0.5,0.9,0.6,1.4c0,0,0,0,0,0c0,0,0,0,0,0c0,0,0,0,0,0c0,0,0,0.1,0,0.1c0,0,0,0,0,0.1c0,0,0,0.1,0,0.1
					c0.4,0.8,0.7,1.6,1.1,2.4c0.1,0.3,0.2,0.3,0.5,0.2c0.1,0,0.2-0.1,0.3-0.1c0.4-0.2,0.8-0.3,1.2-0.5c0.1-0.1,0.3-0.1,0.3,0.1
					c0.2,0.6,0.4,1.2,0.6,1.7c0.4,1.3,0.9,2.6,1.3,4c0.4,1.3,0.9,2.6,1.3,4c0,0.1,0.1,0.2,0.2,0.3c0.1,0.1,0.1,0.1,0.1,0.2
					c0.4,1.2,0.8,2.4,1.2,3.6c0.1,0.3,0.2,0.5,0.2,0.8c0.1,0.1,0.1,0.1,0.1,0.2c0.2,0.7,0.5,1.5,0.7,2.2c0.1,0.2,0.2,0.5,0.2,0.8
					c0,0.1,0.1,0.1,0.2,0.1c0,0,0.1,0,0.1,0c0.1-0.1,0.2-0.1,0.3-0.1c0.8-0.2,1.6-0.4,2.4-0.5c0.3-0.1,0.6-0.1,0.9-0.2
					c0.1,0,0.1-0.1,0.1-0.2c0-0.1,0-0.1,0-0.2c-0.1-0.4-0.2-0.8-0.2-1.2c0,0,0-0.1,0-0.2c0,0,0,0,0-0.1c0,0,0-0.1,0-0.1
					c-0.1-0.7-0.2-1.4-0.3-2.1c-0.1-0.4-0.2-0.9-0.2-1.3c0,0,0-0.1,0-0.1c-0.2-1.2-0.4-2.5-0.6-3.7c0.5-0.3,1-0.6,1.5-0.9
					c0.4-0.2,0.8-0.5,1.2-0.8c0.3-0.2,0.6-0.4,0.8-0.7c0.1,0,0.2-0.1,0.2-0.2c0.5-0.5,1-1.1,1.5-1.7c0.1-0.2,0.3-0.4,0.4-0.6
					c0,0,0,0,0-0.1c0,0,0,0,0,0c0,0,0,0,0-0.1c0,0,0,0,0-0.1c0-0.1,0.1-0.2,0.2-0.4C303.2,85.3,303.5,84.2,303.4,83z"/>
				<path class="st5" d="M366.4,93.5c-0.1-0.4-0.2-0.8-0.5-1.2c-0.3-0.4-0.6-0.9-0.9-1.2c-1.1-1-2.5-1.4-4-1.3
					c-1.4,0.1-2.7,0.6-3.8,1.5c-0.1,0.1-0.3,0.2-0.4,0.3c0,0,0,0,0,0c0,0-0.1,0-0.1,0c0,0-0.1,0-0.1,0.1c0,0,0,0,0,0.1
					c0,0-0.1,0.1-0.1,0.1c-1.2,1.2-2,2.7-2,4.5c0,0.1,0,0.2,0,0.3c0.1,1.3,0.6,2.4,1.5,3.2c0.1,0.1,0.2,0.1,0.3,0.2c0,0,0.1,0,0.1,0
					c0.9,0.7,1.9,1,2.9,1c0.4,0,0.8,0,1.2-0.1c0.5,0,0.9-0.2,1.3-0.3c0,0,0,0,0.1,0c0.4-0.1,0.7-0.3,1.1-0.5
					c0.3-0.2,0.6-0.3,0.8-0.6c0.1,0,0.2-0.1,0.2-0.1c0.8-0.6,1.4-1.4,1.9-2.3C366.4,96.1,366.7,94.8,366.4,93.5z"/>
				<path class="st5" d="M340.1,90.4C340.1,90.4,340.1,90.4,340.1,90.4c-0.1,0-0.1-0.1-0.1-0.1c0,0,0,0,0-0.1l0,0c0,0,0,0,0-0.1l0,0
					c-0.4-0.5-0.9-0.9-1.3-1.4c-0.3,0.3-0.6,0.5-0.9,0.8c0,0,0,0,0,0c-0.1,0-0.2,0.1-0.3,0.2c0,0,0,0-0.1,0.1c0,0,0,0,0,0
					c-0.7,0.4-1.4,0.6-2.2,0.6c-0.3,0-0.6,0.1-0.9,0c0.5-0.4,0.9-0.8,1.4-1.2c1-0.9,2.1-1.8,3.2-2.8c0.1-0.1,0.2-0.2,0.3-0.3
					c0,0,0,0,0.1,0c0.1-0.2,0.3-0.2,0.4-0.4c0.3-0.3,0.6-0.5,0.9-0.8c0,0,0-0.1-0.1-0.1c0,0,0,0,0,0l0,0c0,0,0,0,0,0
					c0,0,0-0.1,0-0.1c0,0,0,0,0,0l0,0c0,0,0,0,0,0c0,0,0,0,0-0.1l0,0c0,0,0,0,0-0.1l0,0c0,0,0,0,0-0.1l0,0c0,0,0,0,0-0.1l0,0
					c0,0,0,0,0-0.1l0,0c0,0,0,0,0-0.1l0,0c0,0,0,0,0-0.1l0,0c0,0,0,0,0-0.1l0,0c0,0,0,0-0.1-0.1l0,0c0,0,0,0-0.1-0.1l0,0
					c-0.1-0.1-0.2-0.2-0.2-0.2c-0.6-0.6-1.4-1.1-2.2-1.4c-1.1-0.5-2.3-0.6-3.5-0.5c-1.4,0.1-2.7,0.5-3.9,1.3
					c-0.2,0.2-0.5,0.3-0.7,0.6c-0.1,0.1-0.2,0.1-0.3,0.2c-0.3,0.1-0.4,0.4-0.6,0.6c-1.1,1.3-1.4,2.9-1.3,4.6
					c0.1,1.2,0.6,2.3,1.4,3.2c0.3,0.3,0.5,0.7,1,0.8c0.1,0,0.1,0.1,0.2,0.1c1,0.7,2.1,1,3.2,1.2c1.2,0.2,2.3,0,3.5-0.2
					c0.5-0.1,1-0.3,1.6-0.4c0.1,0,0.2,0,0.3-0.1c0.7-0.3,1.4-0.6,2.1-1c0.1,0,0.1-0.1,0.1-0.1c0,0,0,0,0,0c0.3-0.2,0.6-0.5,0.9-0.7
					C340.9,91.3,340.5,90.9,340.1,90.4z"/>
			</g>
			<g>
				<path class="st3" d="M332,86.6c0.2-0.2,0.3-0.4,0.5-0.5c0.6-0.2,1.2-0.2,1.8,0.1c0,0,0,0,0,0c-0.2,0.2-0.4,0.4-0.6,0.6
					c-0.6,0.5-1.1,1-1.7,1.6c-0.2-0.3-0.2-0.6-0.2-0.9C331.7,87.2,331.9,86.9,332,86.6z"/>
				<path class="st3" d="M334.3,86.2C334.3,86.2,334.3,86.2,334.3,86.2C334.3,86.3,334.3,86.3,334.3,86.2L334.3,86.2
					C334.2,86.2,334.3,86.2,334.3,86.2z"/>
				<path class="st3" d="M297.1,87c-0.1-0.5-0.2-0.9-0.3-1.4c-0.1-0.4-0.2-0.8-0.2-1.2c0.1-0.1,0.1,0,0.2,0c0.7,0.2,1.1,0.6,1.1,1.3
					c0,0.4,0,0.8-0.2,1.2c-0.1,0.1-0.2,0.2-0.1,0.3c-0.1,0.1-0.2,0.2-0.4,0.3C297.2,87.3,297.2,87.1,297.1,87z"/>
			</g>
			<g>
				<path class="st6" d="M382.8,88.9c-0.1,0-0.1,0-0.2,0c-2.5-0.9-5-1.7-7.5-2.6c0,0-0.1,0-0.1,0c-0.1,0.3-0.2,0.6-0.3,0.9
					c-0.1,0.2-0.1,0.4-0.2,0.6c0,0.1-0.1,0.3-0.1,0.4c0,0.1,0,0.1-0.1,0.2c0,0,0,0,0,0.1c0,0.1-0.1,0.2-0.1,0.3c0,0.1,0,0.1,0,0.2
					c0,0,0,0,0,0.1c0,0,0,0.1,0,0.1c0,0,0,0,0,0c0,0,0,0,0-0.1c0,0,0,0,0-0.1c0-0.1,0-0.1,0-0.2c0,0,0-0.1,0-0.1c0-0.1,0-0.1,0-0.2
					c0,0,0-0.1,0-0.1c0-0.1,0-0.1,0-0.2c0-0.1,0-0.1,0-0.2c0-0.3-0.1-0.5-0.1-0.8c0-0.2,0-0.4-0.1-0.5c0,0,0,0,0,0c0,0,0,0,0,0
					c0,0-0.1,0-0.1,0c0,0,0-0.1,0-0.1c0-0.2,0-0.4-0.1-0.7c0-0.2-0.1-0.2-0.2-0.3c-2.6-0.8-5.3-1.7-7.9-2.6
					c-0.4-0.1-0.7-0.3-1.1-0.3c-0.2,0.3-0.1,0.7-0.2,1c0,0.1,0,0.2,0,0.4c0,0.5-0.1,1.1-0.1,1.6c0,0.1,0,0.1,0,0.2
					c0,0.2,0,0.4-0.1,0.6c0,0.3-0.1,0.6-0.1,0.9c0,0.2-0.1,0.3,0,0.5c0.3,0.2,0.6,0.3,0.9,0.4c0,0,0.1,0,0.1,0c0,0,0,0,0,0
					c0,0.1,0.1,0.1,0.1,0.2c0,0.2-0.1,0.4-0.1,0.6c0,0.1-0.1,0.2-0.2,0.1c-0.2-0.1-0.4-0.2-0.6-0.3c-2-1.2-5.1-0.6-7,0.4
					c-0.1,0-0.1,0.1-0.2,0c0-0.6-0.1-1.2-0.1-1.8c0-0.4,0-0.8-0.1-1.3c0-0.1,0-0.2,0-0.3c-0.1-0.9-0.1-1.7-0.2-2.6
					c0-0.4,0-0.8-0.1-1.2c0-0.6-0.1-1.1-0.1-1.7c0-0.2,0-0.2-0.2-0.2c-1.9-0.2-3.9-0.4-5.8-0.6c-0.1,0-0.2,0-0.2,0
					c-0.1,0.2-0.2,0.4-0.2,0.6c-0.1,0.3-0.1,0.3-0.4,0.3c-0.4,0-0.8-0.1-1.1-0.1c-0.1,0.1-0.2,0-0.3,0c-1.1-0.1-2.2-0.2-3.3-0.3
					c-0.5,0-0.9-0.1-1.4-0.1c0,0-0.1,0-0.1,0c0,0,0,0,0,0.1c0,0,0,0.1,0,0.1c0,0,0,0.1,0,0.1c0,0.1,0,0.1-0.1,0.2c0,0,0,0.1,0,0.1
					c0,0.1,0,0.2-0.1,0.2c0,0,0,0.1,0,0.1c0,0,0,0,0,0c0,0,0,0.1,0,0.1c0,0.2-0.1,0.3-0.2,0.5c-0.1,0.4-0.2,0.9-0.3,1.3
					c-0.1,0.2-0.1,0.4-0.2,0.6c0,0.1,0,0.2,0,0.3c-0.1,0.2-0.1,0.4-0.2,0.6c-0.1-0.1-0.2-0.3-0.3-0.4l0,0c0,0,0,0,0,0c0,0,0,0,0,0
					c-0.2-0.4-0.5-0.8-0.8-1.2c-0.1,0-0.2-0.1-0.2-0.2c-0.8-0.8-1.6-1.4-2.6-1.9c-0.6-0.3-1.2-0.5-1.8-0.6c-0.2-0.1-0.4-0.1-0.6-0.1
					c-0.1,0-0.1,0-0.1-0.1c0,0,0.1,0,0.1,0c0,0,0.1,0,0.1,0c0,0,0.1,0,0.1,0l0,0c0,0,0.1,0,0.1,0l0,0c0,0,0,0,0.1,0l0,0l0,0
					c0,0,0,0,0.1,0c0,0,0,0,0,0c0,0,0,0-0.1,0c0,0,0,0,0.1,0c0,0,0.1,0,0.1,0c0,0,0.1,0,0.1,0c0,0,0.1,0,0.1,0c0,0,0.1,0,0.1,0
					c0,0,0.1,0,0.1,0l0,0c0,0,0,0,0.1,0l0,0l0,0c0,0,0,0,0.1,0c0,0,0,0,0,0c0,0,0,0-0.1,0c0,0,0,0,0.1,0c0,0,0.1,0,0.1,0
					c0,0,0.1,0,0.1,0c0,0,0.1,0,0.1,0c0,0,0.1,0,0.1,0l0,0c0,0,0.1,0,0.1,0l0,0c0,0,0,0,0.1,0l0,0l0,0c0,0,0,0,0.1,0c0,0,0,0,0,0
					c0,0,0,0-0.1,0c0,0,0,0,0.1,0c0,0,0.1,0,0.1,0c0,0,0.1,0,0.1,0c0,0,0.1,0,0.1,0c0,0,0.1,0,0.1,0l0,0l0,0l0,0c0,0,0,0,0,0
					c0,0,0,0,0,0l0,0c0,0,0.1,0,0.1,0l0,0c0,0,0,0,0.1,0l0,0l0,0c0,0,0,0,0.1,0c0,0,0,0,0,0c0,0,0,0-0.1,0c0,0,0,0,0.1,0
					c0,0,0.1,0,0.1,0c0,0,0.1,0,0.1,0c0,0,0.1,0,0.1,0c0,0,0.1,0,0.1,0c0.1,0,0.3-0.1,0.4-0.2c0,0,0,0,0,0c0,0,0.1,0,0.1,0
					c0,0,0,0,0,0c0.1,0,0.1,0,0.2-0.1c0.5-0.2,1.1-0.5,1.6-0.7c0,0,0.1,0,0.1-0.1c0.1,0,0.1-0.1,0-0.1c-0.2-0.4-0.4-0.8-0.7-1.2
					c0-0.1-0.1-0.2-0.1-0.3c-0.8-1.5-1.6-2.9-2.3-4.4c0-0.1-0.1-0.2-0.1-0.3c0,0,0,0-0.1,0c0,0,0,0,0,0c0,0-0.1,0-0.1,0.1
					c0,0,0,0,0,0c0,0,0,0,0,0c-0.4,0.3-0.8,0.7-1.1,1c0,0,0,0-0.1,0c0,0,0,0,0,0c0,0,0,0-0.1,0c0,0,0,0,0,0c0,0,0,0,0,0
					c0,0,0,0,0,0.1c-0.2,0.2-0.4,0.3-0.5,0.5c-0.1,0.1-0.2,0.2-0.3,0.3c0,0,0,0-0.1,0c0,0,0,0,0,0c0,0,0,0-0.1,0c0,0,0,0,0,0
					c0,0,0,0-0.1,0c0,0,0,0,0,0c-0.1,0.2-0.3,0.3-0.5,0.5c-0.2,0.2-0.3,0.3-0.5,0.5c-0.2,0.1-0.3,0.3-0.4,0.4c0,0,0,0-0.1,0
					c0,0,0,0-0.1,0c-0.2,0.2-0.4,0.3-0.5,0.5c-0.1,0.1-0.3,0.2-0.4,0.4c0,0,0,0,0,0.1c0,0,0,0,0,0c0,0,0,0-0.1,0c0,0,0,0-0.1,0
					c-0.1,0.1-0.2,0.1-0.2,0.2c-0.1,0.1-0.2,0.2-0.3,0.3c-0.1,0.1-0.2,0.3-0.4,0.4c0,0,0,0.1-0.1,0.1c-0.2,0.1-0.3,0.3-0.5,0.5
					c-0.3,0.3-0.6,0.6-1,0.9c0,0-0.1,0.1-0.1,0.1c0,0.3,0.2,0.4,0.3,0.6c0.1,0.1,0.1,0.3,0.3,0.3c0,0,0,0,0,0c0,0,0,0.1,0,0.2
					c0,0.1,0.1,0.1,0.1,0.2c0.1,0.1,0.1,0.2-0.1,0.3c-0.3,0.1-0.7,0.2-1,0.4c0,0,0,0-0.1,0c0,0,0,0-0.1,0c-0.1,0.1-0.3,0.1-0.4,0.2
					c0,0.1-0.1,0.1-0.1,0.1c-0.1,0-0.2,0.1-0.3,0.1c-0.3,0.1-0.6,0.2-0.9,0.4c-0.1,0-0.2-0.1-0.2-0.1c-0.1-0.2-0.3-0.3-0.5-0.5
					c-0.4-0.5-0.9-1-1.3-1.4c0,0,0,0,0-0.1l0,0c0,0,0-0.1-0.1-0.1c0,0,0,0,0,0c0,0,0,0-0.1-0.1c0,0,0,0,0-0.1l0,0c0,0,0,0-0.1-0.1
					l0,0c0,0,0,0-0.1-0.1l0,0c0,0,0,0-0.1-0.1l0,0c0,0,0,0,0-0.1c-0.9-1-1.9-2-2.9-3.1c0,0-0.1-0.1-0.1-0.1
					c-0.2,0.2-0.3,0.3-0.4,0.5c0,0,0,0.1,0,0.1c0,0,0,0,0,0.1c0,0,0,0.1-0.1,0.1c0,0,0,0,0,0.1c-0.1,0.1-0.1,0.2-0.2,0.3
					c-0.1,0.1-0.1,0.2-0.2,0.2c0,0,0,0.1-0.1,0.1c0,0,0,0,0,0.1c-0.1,0.1-0.1,0.2-0.2,0.3c0,0,0,0.1-0.1,0.1c0,0,0,0,0,0.1
					c-0.1,0.1-0.1,0.2-0.2,0.3c-0.1,0.1-0.2,0.2-0.2,0.3c0,0,0,0.1-0.1,0.1c0,0,0,0,0,0.1c-0.1,0.1-0.1,0.2-0.1,0.3
					c-0.1,0-0.1,0.1-0.2,0.2c0,0,0,0,0,0c0,0,0,0,0,0c-0.1,0-0.1,0.2-0.2,0.2c0,0,0-0.1-0.1-0.1c0,0,0,0,0-0.1
					c0.1-0.5,0.1-0.9,0.2-1.4c0-0.1,0-0.2,0-0.2c0,0,0-0.1,0-0.1c0,0,0,0,0-0.1c-0.1-0.1,0-0.2,0-0.3c0-0.3,0.1-0.6,0.1-1
					c-0.1,0-0.2,0-0.3,0c-2.2,0.5-4.4,1-6.7,1.4c-0.9,0.2-1.8,0.4-2.7,0.6c0,0,0,0.1,0,0.1c0,0.1,0,0.2,0,0.3c0,0.1,0,0.2,0,0.3
					c0.1,0.1,0,0.2,0,0.2c0,0.3-0.1,0.6-0.1,0.9c0.1,0.1,0,0.2,0,0.3c0,0.3,0,0.5-0.1,0.8c0.1,0.1,0,0.2,0,0.3
					c0,0.3-0.1,0.6-0.1,0.9c0.1,0,0,0.1,0,0.1c0,0,0,0-0.1,0.1c-0.1,0.2-0.1,0.5-0.1,0.7c0,0.1,0,0.2,0.1,0.2c0.2,0,0.3,0,0.4,0
					c0.3,0,0.6-0.1,0.9-0.1c0.2,0,0.1,0.1,0.1,0.2c0,0.6,0,1.3,0,1.9c0,0.2-0.1,0.2-0.2,0.1c0,0-0.1,0-0.1-0.1c0,0,0,0-0.1,0
					c-0.2-0.1-0.4-0.2-0.6-0.3c-0.2-0.1-0.5-0.2-0.7-0.2c0,0.1-0.1,0.1-0.2,0.1c-0.8-0.2-1.6-0.2-2.4-0.1c-1.1,0.1-2.2,0.5-3.2,1
					c-0.1,0-0.1,0.1-0.2,0.1c0-0.1,0-0.1,0-0.2c0.2-0.7,0.3-1.4,0.3-2.1c0-0.5,0-0.9-0.1-1.4c0-0.1,0-0.1,0-0.2
					c-0.2-1-0.6-1.8-1.2-2.6c-0.3-0.5-0.7-1-1.2-1.3c0,0,0,0,0,0c-0.8-0.7-1.6-1.3-2.5-1.7c-1.1-0.5-2.3-0.8-3.5-1
					c-1.3-0.2-2.6-0.2-3.9-0.2c-1.7,0.1-3.3,0.4-4.9,0.8c-0.6,0.2-1.3,0.4-1.9,0.6c-0.2,0-0.3,0.1-0.5,0.2c-1.4,0.5-2.8,1.2-4.2,1.9
					c0,0-0.1,0-0.1,0.1c0.1,0.1,0.1,0.3,0.3,0.4c0,0.1,0.1,0.2,0.1,0.3c0,0,0,0,0,0c0,0.1,0.1,0.2,0.1,0.2c0,0,0,0.1,0,0.1
					c0,0,0,0,0,0c0.1,0.2,0.2,0.4,0.3,0.7c0.1,0.1,0.1,0.2,0.2,0.3c0.1,0.2,0.1,0.4,0.3,0.6c0,0,0,0.1,0,0.1
					c0.2,0.3,0.3,0.5,0.4,0.8c0.2,0.2,0.3,0.5,0.4,0.8c0.1,0.2,0.2,0.4,0.3,0.6c0,0,0,0.1,0,0.1l0,0c0.2,0.3,0.3,0.6,0.4,0.8
					c0.1,0.2,0.2,0.4,0.3,0.6c0,0,0,0.1,0,0.1l0,0c0,0,0,0,0.1,0c0,0.1,0,0.2,0.1,0.2c0.1,0.2,0.2,0.3,0.2,0.5
					c0.2,0.2,0.3,0.6,0.4,0.8c0.5-0.1,0.9-0.3,1.4-0.5c0.1,0,0.1,0,0.2,0c0,0,0.1,0,0.1,0c0,0,0.1,0,0.1,0c0,0,0.1,0,0.1,0
					c0.1,0.2,0.1,0.4,0.2,0.5c0.1,0.4,0.3,0.8,0.4,1.2c0.1,0.4,0.3,0.7,0.4,1.1c0.1,0.3,0.2,0.5,0.3,0.8c0,0,0,0,0,0.1c0,0,0,0,0,0
					c0,0,0,0,0,0.1c0,0,0,0,0,0c0,0,0,0,0,0.1c0,0,0,0.1,0,0.1c0.1,0.2,0.2,0.5,0.2,0.7c0.2,0.5,0.3,0.9,0.5,1.4l0,0
					c0,0,0,0.1,0,0.1c0,0,0,0.1,0,0.1c0.2,0.4,0.3,0.9,0.5,1.3c0,0,0,0,0,0c0,0,0,0,0,0c0,0,0,0.1,0,0.1c0,0,0,0,0,0c0,0,0,0,0,0
					c0,0,0,0.1,0,0.1c0.1,0.3,0.2,0.6,0.3,0.9l0,0c0,0,0,0.1,0,0.1c0,0,0,0,0,0c0,0,0,0,0,0.1c0.1,0.2,0.2,0.4,0.2,0.7l0,0
					c0,0,0,0.1,0,0.1c0.1,0.2,0.2,0.5,0.2,0.7c0.2,0.5,0.3,1,0.5,1.4c0,0.3,0.2,0.5,0.3,0.8c0.2,0.7,0.4,1.4,0.7,2.1
					c0,0,0,0.1,0,0.1l0,0c0,0,0,0.1,0,0.1c0,0,0,0,0,0.1c0,0,0,0,0,0.1c0,0,0,0,0,0c0,0,0,0,0,0.1c0,0,0,0,0,0c0,0,0,0.1,0,0.1l0,0
					c0,0,0,0.1,0,0.1c0,0,0,0,0,0c0,0.3,0.2,0.5,0.3,0.8c0.2,0.5,0.3,1,0.5,1.5c0,0.1,0.1,0.2,0.2,0.1c0.4-0.1,0.7-0.2,1.1-0.2
					c0.7-0.2,1.5-0.3,2.2-0.5c0.5-0.1,1-0.2,1.5-0.3c0,0,0.1,0,0.1,0c0,0,0,0,0.1,0c0,0,0.1,0,0.1,0l0,0c0,0,0,0,0.1,0
					c0,0,0.1,0,0.1,0c0,0,0.1,0,0.1,0c0,0,0,0,0.1,0c0,0,0.1,0,0.1,0c0,0,0.1,0,0.1,0c0,0,0,0,0.1,0c0,0,0.1,0,0.1,0c0,0,0,0,0.1,0
					c0,0,0.1,0,0.1,0c0,0,0,0,0.1,0c0.1,0,0.1,0,0.2,0c0.1,0,0.1,0,0.2,0c0.1,0,0.1,0,0.2,0l0,0c0.1,0,0.2-0.1,0.3,0
					c0.2,0,0.2-0.1,0.2-0.3c-0.1-0.5-0.2-1-0.2-1.5c-0.1-0.4-0.1-0.7-0.2-1.1c0-0.1,0-0.1,0-0.2c0,0,0,0,0,0c0-0.1,0-0.1,0-0.2
					c-0.1-0.8-0.2-1.5-0.4-2.3c0-0.1,0-0.2,0-0.2c0,0,0,0,0,0c0,0,0,0,0,0c0,0,0-0.1,0-0.1c0-0.2,0-0.3-0.1-0.5c0-0.1,0-0.1,0-0.2
					c0,0,0-0.1,0-0.1c0-0.1,0-0.1-0.1-0.2c0.1-0.1,0.1-0.2,0-0.3c0-0.2-0.1-0.5-0.1-0.7c-0.1-0.3-0.1-0.6-0.1-0.9
					c0-0.3-0.1-0.6-0.2-0.9c0-0.1,0-0.3,0.1-0.3c0.5-0.3,0.9-0.6,1.4-0.9c-0.1,0.5-0.1,1-0.1,1.5c0,0,0,0.1,0,0.1c0,0.1,0,0.2,0,0.3
					c0,0.2,0.1,0.5,0.1,0.7c0,0,0,0.1,0,0.1c0,0,0,0.1,0,0.1c0,0.2,0.1,0.5,0.2,0.7c0,0.1,0,0.2,0.1,0.2c0,0,0,0,0,0
					c0,0,0,0.1,0,0.1c0,0.1,0,0.1,0,0.1c0.1,0.4,0.3,0.8,0.6,1.1c0.3,0.5,0.7,0.9,1.1,1.3c0.6,0.5,1.2,0.9,2,1.2c0,0,0.1,0,0.1,0
					c0.1,0,0.1,0.1,0.2,0.1c0.7,0.2,1.4,0.4,2.1,0.4c0.3,0,0.6,0,1,0c1-0.1,1.9-0.3,2.8-0.7c0,0,0,0,0,0c0,0,0,0,0,0
					c0,0,0.1,0,0.1-0.1c0,0,0.1-0.1,0.1-0.1c0,0,0,0,0,0c0.1-0.1,0.2-0.1,0.3-0.1c0.2-0.1,0.3-0.2,0.5-0.3c0,0,0,0,0.1,0
					c0,0,0,0,0.1,0c0.1-0.1,0.3-0.2,0.4-0.3c0,0,0.1-0.1,0.1-0.1c0.1,0,0.1-0.1,0.2-0.1c0.1,0,0,0.1,0,0.2c0,0.3,0,0.6,0,0.8
					c0,0.5,0,1,0,1.5c0,0.2,0.1,0.3,0.3,0.3c2.1-0.1,4.2-0.2,6.3-0.3c0,0,0.1,0,0.1-0.1c0.1-0.1,0.1-0.2,0.1-0.3
					c0.1-1.3,0.3-2.6,0.4-3.9c0.1-0.1,0.1-0.2,0.1-0.3c0-0.4,0.1-0.7,0.1-1.1c0-0.3,0-0.3,0.3-0.1c0.9,0.6,1.8,1.1,2.6,1.6
					c0.1,0.1,0.2,0.1,0.3,0.1c0,0,0.1,0,0.1,0c0.3,0.2,0.5,0.4,0.8,0.5c0,0,0,0,0,0c0,0,0.1,0,0.1,0c0.1,0.1,0.2,0.1,0.3,0.2
					c1,0.6,2,1.2,3,1.8c0.1,0.1,0.2,0.1,0.2,0.2c0.1,0,0.2,0.1,0.2,0.1c0.7,0.5,1.5,0.9,2.2,1.4c0.2,0.1,0.4,0.2,0.5,0.3
					c0,0,0.1,0,0.1,0.1c0.8,0.5,1.5,1,2.3,1.4c0,0,0,0,0,0.1c0.1-0.1,0.1-0.2,0.1-0.3c0.2-1.5,0.3-3.1,0.5-4.6
					c0-0.3,0.1-0.6,0.1-0.8c0,0,0,0,0,0c0-0.1,0-0.2,0-0.3c0-0.2,0-0.4,0.1-0.5c0.1,0,0.3,0,0.4,0c1.8-0.1,3.4-0.5,5.1-1.1
					c0.1,0,0.2-0.1,0.2-0.1c0.1,0.1,0,0.1,0,0.1c0,0,0,0.1,0,0.1c0,0.1,0,0.1-0.1,0.2c0,0,0,0.1,0,0.1c0,0.1,0,0.1-0.1,0.2
					c0,0,0,0.1,0,0.1c0,0.1,0,0.2-0.1,0.3c0,0,0,0.1,0,0.1c0,0.1,0,0.2-0.1,0.2c0,0,0,0.1,0,0.1c0,0,0,0,0,0c0,0,0,0,0,0.1
					c-0.1,0.5-0.3,1.1-0.4,1.6c0,0.1,0.1,0.2,0.2,0.2c0.1,0,0.3,0.1,0.4,0.1c0.6,0.2,1.2,0.3,1.9,0.5c0.5,0.1,1,0.2,1.5,0.4
					c0.3,0.1,0.5,0.1,0.8,0.2c0.1,0,0.3,0,0.4,0.1c0.3,0.1,0.5,0.1,0.8,0.2c0.4,0.1,0.8,0.2,1.2,0.3c0.2,0.1,0.2,0,0.3-0.1
					c0.2-0.8,0.4-1.5,0.6-2.3c0.3,0.7,0.6,1.4,0.9,2.2c0.1,0.2,0.1,0.4,0.3,0.5c0.2,0.2,0.2,0.6,0.4,0.8c0.2-0.2,0.3-0.4,0.5-0.6
					c0.4-0.4,0.6-0.9,0.9-1.3c0,0.2-0.1,0.5,0.1,0.8c0,0,0,0,0,0c0,0,0,0-0.1,0c-0.1,0.2,0,0.4,0,0.6c0,0.5,0,0.9,0,1.4
					c0,0,0,0.1,0,0.1c0,0.1,0,0.2,0,0.3c0,0.3,0,0.5,0.3,0.5c2.6,0.7,5.1,1.4,7.7,2.1c0.1,0,0.2,0.1,0.4,0c0,0,0,0,0,0
					c0-0.5,0-1.1-0.1-1.6c0-0.1,0-0.2,0-0.2c0,0,0,0,0,0c0,0,0-0.1,0-0.1c0-0.1,0-0.2,0.1-0.2c0,0-0.1,0-0.1,0c0,0,0,0,0-0.1
					c0-0.1,0-0.2,0-0.3c0-0.3,0-0.3,0.3-0.2c0.3,0,0.5,0.1,0.8,0.1c0.1,0,0.2,0,0.3-0.1c0.4,0,0.9,0,1.3-0.1
					c0.5-0.1,0.9-0.2,1.4-0.3c0.1-0.1,0.2-0.1,0.3-0.1c0,0.1,0,0.3-0.1,0.4c-0.1,0.5-0.2,0.9-0.3,1.4c-0.1,0.4-0.2,0.8-0.3,1.2
					c0.1,0,0.1,0,0.2,0c0,0,0.1,0,0.1,0c0.4,0,0.8,0.2,1.1,0.2c0.6,0.1,1.1,0.3,1.7,0.4c0.5,0.1,0.9,0.2,1.4,0.3
					c0.3,0.1,0.7,0.2,1,0.2c0,0.1,0.1,0.1,0.2,0.1c0,0,0,0.1,0,0.1c0,0.1,0,0.1,0,0.2c0,0.1,0,0.1,0,0.2c0,0,0,0,0,0.1c0,0,0,0,0,0
					c0,0,0,0,0,0c-0.1,0.1-0.1,0.2-0.1,0.3c0,0.3,0,0.6,0,1c0,0.2-0.1,0.3,0,0.5c0.1,0.1,0.2,0.2,0.3,0.2c1.3,0.6,2.7,1.1,4,1.7
					c0.4,0.2,0.9,0.4,1.3,0.5c0.1,0,0.1-0.1,0.1-0.1c0.1-0.2,0.2-0.4,0.3-0.7c0.3-0.6,0.5-1.2,0.8-1.8c0,0,0-0.1,0-0.1c0,0,0,0,0,0
					c0.3-0.5,0.5-1.1,0.7-1.7c0.2-0.4,0.4-0.8,0.5-1.3c0,0,0.1-0.1,0.1-0.1c0,0,0,0,0,0c0.3-0.5,0.5-1.1,0.7-1.6
					c0.2-0.4,0.4-0.7,0.5-1.1c0,0,0.1-0.1,0.1-0.1c0,0,0,0,0,0c0,0,0.1-0.1,0.1-0.1l0,0c0,0,0,0,0,0c0,0,0.1-0.1,0.1-0.1
					c0,0,0,0,0,0c0.1,0,0.1-0.1,0.1-0.2c0.1,0,0.1-0.1,0.1-0.2c0.1-0.1,0.1-0.2,0.1-0.2c0.4-1,0.9-2,1.3-3c0.2-0.4,0.4-0.7,0.5-1.1
					c0.1-0.1,0.1-0.2,0.1-0.2c0.3-0.8,0.7-1.6,1-2.3c0.2-0.4,0.4-0.8,0.5-1.3c0,0,0.1-0.1,0.1-0.1c0,0,0,0,0,0
					c0.1-0.1,0.1-0.2,0.1-0.2c0.4-1,0.9-2,1.3-3c0.1-0.2,0.2-0.3,0.2-0.5c0.2-0.3,0.3-0.5,0.4-0.8C382.8,89,382.8,88.9,382.8,88.9z
					 M380.1,93.5C380.1,93.5,380.1,93.5,380.1,93.5C380.1,93.5,380.1,93.5,380.1,93.5z M371.6,86.1
					C371.6,86.1,371.6,86.1,371.6,86.1C371.6,86.1,371.6,86.1,371.6,86.1C371.6,86.1,371.6,86.1,371.6,86.1z M356.6,91.8
					C356.6,91.8,356.6,91.8,356.6,91.8C356.6,91.8,356.6,91.8,356.6,91.8C356.6,91.8,356.6,91.8,356.6,91.8
					C356.6,91.7,356.6,91.7,356.6,91.8C356.6,91.7,356.6,91.7,356.6,91.8C356.6,91.8,356.6,91.8,356.6,91.8z M341.9,86.2
					C341.9,86.2,342,86.2,341.9,86.2C342,86.2,342,86.2,341.9,86.2c0,0.1,0,0.1,0,0.1c0,0,0,0.1,0,0.1c-0.1,0-0.1,0.1-0.1,0.2
					c-0.1,0.3-0.2,0.6-0.2,0.9c-0.1,0.4-0.2,0.8-0.3,1.2c-0.3-0.3-0.6-0.6-0.8-0.9c-0.1-0.1,0-0.2,0-0.3c0.2-0.3,0.5-0.4,0.8-0.7
					c0.2-0.2,0.4-0.3,0.5-0.6C341.8,86.3,341.9,86.2,341.9,86.2z M336.1,75.8c0.3-0.3,0.6-0.6,0.9-0.9c0.2-0.2,0.4-0.4,0.6-0.6
					c0.1-0.2,0.2-0.1,0.3,0c0.3,0.6,0.7,1.2,1,1.7c0.1,0.1,0.1,0.2,0.2,0.2l0,0c0,0,0,0,0,0c0,0,0,0,0,0c0,0,0,0,0,0c0,0,0,0,0,0
					c0,0,0,0,0,0c0,0,0,0,0,0c0,0,0,0,0,0c0,0,0,0,0,0c0,0,0,0,0,0.1c0,0,0,0,0,0c0,0,0,0,0,0c0,0,0,0,0,0.1c0,0,0,0.1,0,0.1
					c-0.3,0.2-0.7,0.3-1.1,0.4c-0.4,0.2-0.9,0.3-1.3,0.5c-0.1,0-0.2,0-0.2,0.2c0,0,0,0-0.1,0c0,0,0,0,0,0c0,0,0,0-0.1,0c0,0,0,0,0,0
					c0,0,0,0,0,0c0,0,0,0,0,0c0,0,0,0-0.1,0c0,0,0,0,0,0c0,0,0,0,0,0c0,0,0,0,0,0c0,0,0,0-0.1,0c0,0,0,0,0,0c0,0,0,0,0,0
					c0,0,0,0,0,0c0,0,0,0-0.1,0c0,0,0,0,0,0c0,0,0,0,0,0c0,0,0,0,0,0c0,0,0,0-0.1,0c0,0,0,0,0,0c0,0,0,0,0,0c0,0,0,0,0,0
					c0,0,0,0-0.1,0c0,0-0.1,0-0.1,0c0,0,0,0-0.1,0c0,0,0,0-0.1,0c0,0,0,0,0,0c-0.1,0-0.2,0.1-0.3,0.1c0,0,0,0,0,0c0,0,0,0-0.1,0
					c0,0-0.1,0-0.1,0c0,0,0,0-0.1,0c0,0-0.1,0-0.1,0c0,0,0,0,0,0c0,0,0,0-0.1,0c0,0,0,0,0,0c0,0,0,0-0.1,0c0,0,0,0,0,0
					c0,0,0,0-0.1,0c0,0,0,0-0.1,0c0,0,0,0-0.1,0c0,0,0,0-0.1,0c0,0,0,0-0.1,0c0,0,0,0-0.1,0c0,0,0,0-0.1,0c0,0,0,0-0.1,0
					c0,0,0,0-0.1,0c0,0,0,0-0.1,0c0,0,0,0-0.1,0c0,0,0,0-0.1,0c0,0,0,0-0.1,0c0,0,0,0-0.1,0c0,0,0,0-0.1,0c0,0,0,0,0,0
					c0,0-0.1,0-0.1,0c0,0,0,0-0.1,0c0,0-0.1,0-0.1,0c0,0-0.1,0-0.1,0c-0.2,0.1-0.3,0.1-0.4-0.1c-0.2-0.3-0.2-0.3,0-0.5
					c0.2-0.2,0.4-0.4,0.6-0.6c0,0,0,0,0-0.1c0,0,0,0,0,0c0,0,0,0,0,0c0,0,0,0,0,0c0,0,0,0,0-0.1c0,0,0,0,0,0c0,0,0,0,0,0
					c0,0,0,0,0,0c0,0,0,0,0,0c0,0,0,0,0,0c0,0,0,0,0,0c0,0,0,0,0,0c0,0,0,0,0,0c0,0,0,0,0,0c0,0,0,0,0,0c0,0,0,0,0,0c0,0,0,0,0,0
					c0,0,0,0,0,0c0,0,0,0,0,0c0,0,0,0,0,0c0,0,0,0,0,0c0,0,0,0,0-0.1c0,0,0,0,0,0c0,0,0.1-0.1,0.1-0.1c0,0,0,0,0,0c0,0,0,0,0.1,0
					c0,0,0,0,0,0c0,0,0,0,0,0c0,0,0,0,0,0c0,0,0,0,0.1-0.1c0,0,0,0,0,0c0,0,0,0,0,0c0,0,0,0,0,0c0,0,0,0,0,0c0,0,0,0,0,0
					c0,0,0,0,0,0c0,0,0,0,0,0c0,0,0,0,0.1-0.1c0,0,0,0,0,0c0,0,0,0,0,0c0,0,0,0,0,0c0,0,0,0,0,0c0,0,0,0,0,0c0,0,0,0,0,0
					c0,0,0,0,0,0c0,0,0,0,0,0c0,0,0,0,0,0c0,0,0,0,0,0c0,0,0,0,0,0c0,0,0,0,0,0c0,0,0,0,0,0c0,0,0,0,0,0c0,0,0,0,0,0c0,0,0,0,0,0
					c0,0,0,0,0,0c0,0,0,0,0,0c0,0,0,0,0,0c0,0,0,0,0,0c0,0,0,0,0,0C335.9,76,336,75.9,336.1,75.8z M324.6,88.8
					c0-0.1-0.1-0.1-0.1-0.1c-0.1-0.1-0.2-0.1-0.4-0.2c-0.3-0.1-0.3-0.2,0-0.3c0.2-0.2,0.5-0.4,0.7-0.6c0.2-0.2,0.5-0.4,0.7-0.6
					c-0.1,0.5-0.1,1-0.1,1.5c0,0.2,0,0.4,0.1,0.5c-0.1,0.1-0.2,0.1-0.3,0C325,89,324.8,88.8,324.6,88.8z M284.5,79.2
					c0.9-0.4,1.9-0.8,2.8-1.1c0.8-0.3,1.5-0.5,2.3-0.7c0,0,0.1,0,0.1-0.1c0,0,0,0,0.1,0c0,0,0.1,0,0.1,0c0,0,0,0,0.1,0
					c0,0,0.1,0,0.1,0c0,0,0,0,0.1,0c0,0,0.1,0,0.1,0c0,0,0,0,0.1,0c0,0,0.1,0,0.1,0c0,0,0,0,0.1,0c0,0,0.1,0,0.1,0c0,0,0,0,0.1,0
					c0,0,0.1,0,0.2,0c0,0,0,0,0.1,0c0.1,0,0.1,0,0.2,0c0,0,0,0,0,0c0,0,0,0,0,0c0.1,0.1,0.3,0,0.4,0c1.1-0.2,2.1-0.2,3.2-0.2
					c1.5,0.1,2.9,0.3,4.3,0.8c0.1,0,0.2,0.1,0.3,0c0,0,0,0,0,0c0,0,0,0,0,0c0,0,0,0,0,0c0,0,0,0,0,0c0,0,0,0,0.1,0c0,0,0,0,0.1,0
					c0,0,0,0,0.1,0c0,0,0,0,0.1,0c0,0,0.1,0,0.1,0c0,0,0,0,0,0c0,0,0,0,0.1,0c0,0,0,0,0.1,0c0,0,0.1,0,0.1,0c0,0,0,0,0,0
					c0,0,0,0,0.1,0c0,0,0,0,0,0c0,0,0,0,0,0c0,0,0,0,0,0c0,0,0,0,0,0c0,0,0,0,0,0c0,0,0,0,0,0c0,0,0,0,0,0c0,0,0,0,0,0c0,0,0,0,0,0
					c0,0,0,0,0,0c0,0,0,0,0,0c0,0,0,0,0.1,0c0,0,0,0,0,0c0,0,0,0,0,0c0,0,0,0,0,0c0,0,0,0,0,0c0,0,0,0,0,0c0,0,0,0,0.1,0
					c0,0,0,0,0,0c0,0,0,0.1,0.1,0.1c0,0,0.1,0.1,0.1,0.1c1,0.8,1.7,1.8,2.1,3c0,0.1,0,0.1,0.1,0.1c0,0,0,0,0,0c0,0.1,0,0.1,0,0.2
					c0,0.1,0,0.2,0,0.3c0.1,0.8,0,1.6-0.2,2.4c-0.2,0.6-0.4,1.2-0.7,1.7c0,0,0,0.1-0.1,0.1c0,0,0,0,0,0.1c0,0,0,0.1,0,0.1
					c0,0,0,0,0,0c0,0-0.1,0.1-0.1,0.1c-0.3,0.6-0.8,1.1-1.2,1.6c-0.2,0.3-0.5,0.5-0.8,0.8c-0.2,0.2-0.4,0.4-0.6,0.6
					c-0.4,0.3-0.8,0.6-1.2,0.9c0,0,0,0-0.1,0c-0.5,0.2-1,0.6-1.5,0.8c-0.1,0-0.1,0.1-0.1,0.1c0,0,0,0.1,0,0.1
					c0.2,1.2,0.4,2.4,0.6,3.5c0,0.1,0,0.1,0.1,0.2c0,0,0,0,0,0c0,0.1,0,0.1,0,0.2c0.2,1.1,0.3,2.1,0.5,3.2c0,0.1,0,0.2,0.1,0.2
					c0,0,0,0,0,0c0,0,0,0,0,0c0,0.1,0,0.1,0,0.2c0,0.4,0.1,0.8,0.2,1.2c0,0.2,0,0.3-0.2,0.3c-0.2,0-0.5,0.1-0.7,0.1
					c-0.8,0.2-1.6,0.3-2.4,0.5c-0.1,0-0.2,0-0.3,0.2c-0.1-0.1-0.2-0.1-0.3-0.1c0.1-0.1,0-0.3-0.1-0.4c-0.3-0.9-0.6-1.7-0.9-2.6
					c0-0.1,0-0.2-0.2-0.2c0,0,0,0-0.1,0c0,0,0.1,0,0.1,0c0.1-0.1,0-0.3-0.1-0.4c-0.3-1-0.7-2-1-3c-0.1-0.4-0.2-0.8-0.4-1.1
					c0,0,0,0,0,0c0-0.1,0-0.1-0.1-0.2c-0.3-0.9-0.6-1.9-0.9-2.8c-0.1-0.4-0.3-0.8-0.4-1.2c0-0.1,0-0.2-0.1-0.3c-0.3-1-0.6-1.9-1-2.9
					c-0.1-0.3-0.2-0.5-0.3-0.8c-0.2-0.6-0.4-1.2-0.6-1.8c-0.1-0.2-0.1-0.2-0.2-0.1c-0.5,0.2-1.1,0.4-1.6,0.6
					c-0.2,0.1-0.2,0.1-0.3-0.1c-0.2-0.5-0.4-0.9-0.7-1.4c-0.2-0.4-0.3-0.7-0.5-1.1c0,0,0-0.1-0.1-0.1c0,0,0-0.1,0-0.1l0,0
					c0,0,0,0,0-0.1c0,0,0,0,0,0c0,0,0,0,0,0.1c0,0,0,0,0-0.1c0,0,0,0,0,0c0-0.1,0-0.2-0.1-0.3c-0.2-0.5-0.4-0.9-0.7-1.4
					c0-0.1-0.1-0.2-0.1-0.3c0,0,0,0,0-0.1c0,0,0,0,0,0c0,0,0,0,0,0c0,0,0,0,0,0C284.2,79.4,284.4,79.3,284.5,79.2z M309.4,97.7
					c-1.5,0.5-3,0.5-4.5-0.1c-0.7-0.3-1.3-0.8-1.8-1.4c0,0,0,0-0.1,0c0,0,0,0-0.1,0c0,0-0.1-0.1-0.1-0.1c0,0,0,0,0-0.1c0,0,0,0,0,0
					c0,0,0,0,0,0c0,0,0,0,0,0c0,0,0,0,0,0c0,0,0-0.1,0-0.1c0,0,0,0,0-0.1c0,0,0,0,0,0c0-0.1,0-0.1-0.1-0.2c-0.4-0.8-0.6-1.7-0.6-2.7
					c0-0.4,0.1-0.9,0.2-1.3c0.1-0.2,0.2-0.5,0.3-0.7c0.4-1,1.1-1.9,1.9-2.7c0-0.1,0.1-0.1,0.2-0.2c0.2-0.2,0.4-0.3,0.7-0.5
					c0,0,0,0,0,0c0,0,0,0,0,0c0.2,0,0.3-0.1,0.4-0.2c1.4-0.8,3-1.2,4.6-0.9c1.1,0.2,2,0.7,2.8,1.6c0.1,0.1,0.1,0.2,0.2,0.2
					c0,0,0,0,0,0c0,0.1,0.1,0.1,0.2,0.2c0,0,0,0,0,0c0,0,0,0.1,0.1,0.1c0.4,0.6,0.6,1.3,0.7,2c0.1,0.5,0,0.9,0,1.4c0,0,0,0,0,0
					c-0.1,0.2-0.1,0.3-0.1,0.5c0,0.1,0,0.1-0.1,0.2c-0.3,1.3-1,2.4-1.9,3.3c-0.1,0.1-0.3,0.3-0.4,0.4c0,0,0,0-0.1,0
					c-0.1,0.1-0.2,0.2-0.4,0.2C310.9,97,310.2,97.4,309.4,97.7z M326.5,97.2C326.5,97.2,326.5,97.2,326.5,97.2
					C326.5,97.2,326.5,97.2,326.5,97.2z M330.9,99.4c-0.1,0-0.2-0.1-0.3-0.1c-1.2-0.8-2.4-1.5-3.6-2.3c-0.1,0-0.1-0.1-0.2-0.1
					c0,0,0,0,0,0c-0.1-0.1-0.2-0.2-0.3-0.3c-2.5-1.6-5-3.1-7.4-4.7c-0.1-0.1-0.2-0.1-0.3-0.1c-0.1,0-0.2,0-0.2,0.1
					c0,0.1-0.1,0.3-0.1,0.4c-0.2,2-0.4,4-0.6,6.1c0,0.2,0,0.4-0.1,0.5c0,0,0,0,0,0c-0.2,0-0.4,0-0.7,0c-0.7,0-1.5,0.1-2.2,0.1
					c-0.5,0-0.5,0-0.5-0.5c0-0.6,0.1-1.2,0-1.7c0-0.1,0-0.1,0-0.2c0-0.1,0-0.1,0-0.2c0-0.2,0-0.3,0.1-0.4c0.3-0.5,0.6-1,0.9-1.5
					c0.2-0.6,0.5-1.2,0.5-1.9c0-0.1,0.1-0.2,0.1-0.3c0.1-0.9,0.1-1.8-0.2-2.7c-0.1-0.5-0.3-1-0.6-1.5c0,0,0,0,0,0c0,0,0,0,0,0
					c0-0.3-0.3-0.6-0.5-0.8c-0.1-0.2-0.2-0.4-0.2-0.6c0-0.5,0-1,0-1.6c0-0.3,0.1-0.7,0-1c0-0.2,0-0.3,0-0.5c0-0.1,0-0.1,0-0.2
					c0-0.1,0-0.3,0-0.4c0-0.1,0-0.1,0-0.2c0,0,0-0.1,0-0.1c0-0.6,0-1.2,0-1.8c-0.6,0.1-1.1,0.2-1.6,0.3c0-0.3,0-0.6,0-0.9
					c0,0,0.1-0.1,0.1-0.1c0-0.3,0.2-0.4,0.4-0.5c0.1,0,0.1,0,0.2-0.1c0,0,0,0,0.1,0c0,0,0.1,0,0.1,0c0,0,0,0,0.1,0c0,0,0.1,0,0.1,0
					c0,0,0,0,0.1,0c0,0,0.1,0,0.1,0c0,0,0,0,0.1,0c0,0,0.1,0,0.1,0c0,0,0,0,0.1,0c0,0,0.1,0,0.1,0c0,0,0,0,0.1,0c0,0,0.1,0,0.1,0
					c0,0,0,0,0.1,0c0,0,0.1,0,0.1,0c0,0,0,0,0.1,0c0,0,0.1,0,0.1,0c0,0,0,0,0.1,0c0,0,0.1,0,0.1,0c0,0,0,0,0.1,0c0,0,0.1,0,0.1,0
					c0,0,0,0,0,0c0,0,0,0,0,0c0.1,0.1,0.3,0,0.4,0c0.9-0.2,1.7-0.3,2.6-0.5c0.3-0.1,0.3,0,0.3,0.2c0,0.3,0,0.6,0,0.9
					c0,0.2,0,0.2,0.1,0.2c0,0,0,0,0,0c-0.1,0.1-0.1,0.2-0.1,0.3c0,0.3,0,0.6,0,0.8c-0.1,1-0.1,2-0.1,3c0,0.1,0,0.2,0.1,0.3
					c0-0.1,0.1-0.1,0.1-0.2c1.1-1.3,2.2-2.5,3.3-3.8c0.1-0.1,0.2-0.1,0.2-0.2c0.1,0,0.1-0.1,0.1-0.1c0,0,0,0,0-0.1c0,0,0,0,0,0.1
					c0,0,0,0,0,0c0,0,0,0,0.1-0.1l0,0c0,0,0.1,0,0.1-0.1c0,0,0,0,0-0.1c0,0,0,0-0.1,0.1c0,0,0,0,0,0l0,0c0,0,0,0,0,0c0,0,0,0,0,0
					c0,0,0,0,0.1-0.1c0,0,0,0,0-0.1l0,0c0,0,0,0,0,0c0,0,0.1,0,0.1-0.1c0,0,0,0,0-0.1l0,0c0,0,0.1,0,0.1-0.1c0.2,0,0.3-0.2,0.4-0.4
					c0.1-0.1,0.2-0.1,0.3,0c0.1,0.1,0.1,0.2,0.2,0.2c0,0,0,0,0,0c0,0,0,0,0,0c0,0,0,0,0,0.1c0,0,0,0,0,0c0,0,0,0,0,0c0,0,0,0,0,0
					c0,0,0,0,0,0c0,0,0,0,0,0c0,0,0,0,0,0c0,0,0,0,0,0c0,0,0,0,0,0c0,0,0,0,0,0c0,0,0,0,0,0c0,0,0,0,0,0c0,0,0,0,0,0c0,0,0,0,0,0
					c0,0,0,0,0,0c0,0,0,0,0,0c0,0,0,0,0,0c0,0,0,0,0,0c0,0,0,0,0,0c0,0,0,0,0,0c0,0,0,0,0,0c0,0,0,0,0,0c0.1,0,0.1,0.1,0.1,0.2
					c0.3,0.4,0.5,0.7,0.9,1c0.5,0.6,1,1.2,1.5,1.8c0.1,0.1,0.1,0.2,0,0.3c-0.1,0.1-0.2,0.1-0.1,0.2c0,0,0,0,0,0
					c-0.2,0-0.4,0.2-0.5,0.4c0,0-0.1,0.1-0.1,0.1c-1.8,1.5-3.6,3.1-5.3,4.6c0,0,0,0.1,0.1,0.1c0,0,0,0,0,0c0.1,0,0.1,0.1,0.2,0.1
					c0,0,0,0,0,0c0,0,0.1,0,0.1,0c0,0,0,0,0.1,0c0,0,0,0,0.1,0c0,0,0,0,0,0c0.1,0,0.1,0.1,0.2,0.1c0,0,0,0,0,0c0,0,0,0,0,0
					c0,0,0,0,0,0l0,0c0,0,0,0,0,0c0.1,0,0.1,0.1,0.2,0.1c0,0,0.1,0.1,0.1,0.1l0,0l0,0c0,0,0.1,0.1,0.1,0.1l0,0l0,0c0,0,0,0,0.1,0
					l0,0l0,0c0,0,0,0,0.1,0c0.1,0.1,0.2,0.1,0.3,0.2c1,0.5,2.1,1.1,3.1,1.6c0.2,0.1,0.3,0.2,0.3,0.3c0.2,0.4,0.4,0.8,0.7,1.2
					c0.1,0.2,0.3,0.4,0.4,0.5c0,0,0,0,0,0c0,0,0,0,0,0.1c0,0,0,0,0,0c0,0,0,0,0,0.1c0,0,0,0,0,0c0,0,0,0,0,0.1
					c0.5,0.6,1.1,1.1,1.8,1.5c0.8,0.5,1.6,0.8,2.5,1c0.1,0,0.3,0.1,0.2,0.3c-0.1,1.2-0.2,2.4-0.4,3.6l0,0
					C331.4,99.6,331.1,99.5,330.9,99.4z M337.7,93.8c-0.6,0.2-1.3,0.4-2,0.5c-1.8,0.3-3.6,0.2-5.2-0.7c-0.3-0.1-0.5-0.4-0.8-0.5
					c0,0,0,0-0.1,0c-0.1-0.1-0.1-0.1-0.2-0.2c-1-0.8-1.7-1.8-2-3.1c-0.1-0.2-0.1-0.4-0.1-0.7c0-0.2,0-0.3,0-0.5c0-1.3,0.3-2.6,1-3.7
					c0.2-0.4,0.5-0.7,0.8-1c0.1,0,0.2-0.1,0.3-0.2c0.2-0.2,0.4-0.4,0.7-0.5c1.8-1.2,3.7-1.5,5.8-1.2c1.4,0.2,2.7,0.8,3.7,1.8
					c0.1,0.1,0.2,0.2,0.3,0.2c0,0,0,0,0,0c0,0,0,0,0,0c0,0,0,0,0,0c0,0,0,0,0,0c0,0,0,0,0,0c0,0,0,0,0,0c0,0,0,0,0,0c0,0,0,0,0,0
					c0,0,0,0,0,0c0,0,0,0,0,0c0,0,0,0,0,0c0,0,0,0,0,0c0,0,0,0,0,0c0,0,0,0,0,0c0,0,0,0,0,0c0,0,0,0,0,0c0,0,0,0,0,0c0,0,0,0,0,0
					c0,0,0,0,0,0c0,0,0,0,0,0c0,0,0,0,0,0c0,0,0,0,0,0c0,0,0,0,0,0c0,0,0,0.1,0,0.1c-0.3,0.3-0.6,0.5-0.8,0.8
					c-0.1,0.1-0.3,0.3-0.4,0.4c0,0,0,0,0,0s0,0,0,0c0,0,0,0,0,0c0,0,0,0,0,0c0,0,0,0,0,0l0,0l0,0c0,0,0,0,0,0
					c-0.1,0.1-0.2,0.2-0.3,0.3c0,0-0.1,0.1-0.1,0.1c-1.3,1.1-2.6,2.3-3.9,3.4c-0.2,0.2-0.4,0.3-0.6,0.5c0.1,0.1,0.2,0.2,0.3,0.1
					c0.4,0,0.7,0,1.1-0.1c0.6-0.1,1.2-0.2,1.7-0.6l0,0c0,0,0,0,0.1,0c0.1-0.1,0.2-0.1,0.3-0.2c0.3-0.1,0.5-0.3,0.7-0.5
					c0.1-0.1,0.2-0.1,0.3,0c0.2,0.3,0.4,0.5,0.7,0.7c0.1,0.2,0.3,0.4,0.5,0.4c0,0,0,0,0,0c0,0,0,0,0,0c0,0,0,0,0,0.1
					c0,0,0,0.1,0.1,0.1c0,0,0,0.1,0.1,0.1c0.3,0.4,0.6,0.7,0.9,1c0.2,0.2,0.2,0.2,0,0.4c-0.2,0.2-0.5,0.3-0.7,0.5
					c-0.6,0.5-1.3,0.8-2,1.1c-0.1,0-0.2,0.1-0.3,0.1c0,0-0.1,0-0.1,0C337.8,93.7,337.7,93.7,337.7,93.8z M356.2,103
					C356.2,103,356.2,103,356.2,103c-0.2,0-0.2,0-0.3-0.1c-0.2-0.1-0.5-0.1-0.8-0.2c-1-0.2-2-0.5-3-0.8c-0.4-0.1-0.4-0.1-0.4-0.5
					c0-0.1,0-0.3-0.1-0.4c0,0,0-0.1-0.1-0.1c0-0.1,0-0.1,0-0.2c-0.1-1-0.1-2.1-0.2-3.1c0-0.4,0-0.9-0.1-1.3c0-0.3,0-0.6,0-1
					c0-0.6-0.1-1.2-0.1-1.8c0,0,0-0.1-0.1,0l0,0c-0.1,0.1-0.1,0.1-0.2,0.2c-0.4,0.7-0.7,1.5-1.1,2.2c0,0.1-0.1,0.1,0,0.2
					c-0.2,0.2-0.3,0.4-0.4,0.6c-0.2,0.3-0.3,0.6-0.4,0.9c-0.1-0.2-0.1-0.4-0.3-0.5c0-0.1-0.1-0.2-0.1-0.2c-0.1-0.3-0.2-0.6-0.3-0.9
					c0,0,0-0.1,0-0.1c-0.4-1.3-0.9-2.5-1.3-3.8c0-0.1,0-0.1-0.1-0.2c-0.1,0.1-0.1,0.2-0.2,0.3c-0.3,1.1-0.6,2.3-0.9,3.4
					c0,0.1-0.1,0.2,0,0.3c0,0,0,0,0,0c-0.1,0.1-0.1,0.2-0.1,0.3c-0.2,0.6-0.3,1.2-0.5,1.8c0,0.1-0.1,0.3-0.3,0.2
					c-0.2-0.1-0.4-0.1-0.6-0.1c-0.5-0.1-1.1-0.3-1.6-0.4c-0.6-0.2-1.2-0.3-1.8-0.5c-0.1,0-0.2,0-0.1-0.2c0,0,0,0,0,0c0,0,0,0,0,0
					c0.1,0,0.1-0.2,0.2-0.3c0.1-0.4,0.2-0.9,0.4-1.3c0.1-0.4,0.2-0.8,0.3-1.2c0,0,0-0.1,0-0.1c0.1-0.1,0.1-0.3,0.1-0.4
					c0-0.1,0.1-0.2,0.2-0.3c0.6-0.5,1.2-1,1.8-1.5c0.1-0.1,0.1-0.1,0-0.2c-0.4-0.4-0.8-0.8-1.2-1.2c0,0,0-0.1,0-0.1
					c0.2-0.7,0.4-1.3,0.5-2c0.1-0.4,0.2-0.8,0.3-1.2c0.1-0.1,0.1-0.2,0.1-0.3l0,0c0.1-0.2,0.1-0.4,0.2-0.6c0.1-0.4,0.2-0.8,0.3-1.2
					c0.1-0.1,0.1-0.1,0.1-0.2c0,0,0-0.1,0-0.1c0.1-0.1,0.1-0.1,0.1-0.2c0,0,0-0.1,0-0.1c0,0,0-0.1,0-0.1c0.1-0.5,0.3-1,0.4-1.5
					c0.1-0.1,0.1-0.3,0.2-0.4c0.1-0.3,0.1-0.4,0.5-0.3c1.3,0.1,2.6,0.2,3.9,0.4c0.1,0,0.1,0.1,0.1,0.2c0,0.3,0,0.6,0.1,1
					c0,0.1,0,0.1,0.1,0.2c0,0,0,0,0,0c0,0,0,0,0,0c0,0.2,0,0.5,0,0.7c0.1,1.3,0.2,2.5,0.3,3.8c0,0.1,0,0.1,0,0.2
					c0-0.1,0.1-0.2,0.1-0.3c0-0.1,0.1-0.2,0.1-0.3c0.3-0.9,0.5-1.9,0.8-2.8c0.1-0.4,0.2-0.7,0.3-1.1c0.1-0.3,0.2-0.6,0.2-0.9
					c0.1-0.1,0.1-0.2,0.1-0.3c0,0,0,0,0,0c0.1-0.1,0.1-0.1,0.1-0.2c0,0,0-0.1,0-0.1c0,0,0,0,0.1-0.1c0-0.1,0-0.1,0-0.2c0,0,0,0,0,0
					c0,0,0,0,0,0c0,0,0,0,0.1,0c0,0,0.1-0.1,0.1-0.2c0.1-0.4,0.1-0.4,0.5-0.3c0.7,0.1,1.4,0.1,2.2,0.2c0.5,0,0.5,0.1,0.5,0.4
					c0,0.1,0,0.1,0,0.1c0,0,0,0,0.1,0c0,0,0,0,0,0c-0.1,0.1-0.1,0.2-0.1,0.3c0.1,1.1,0.1,2.2,0.2,3.3c0,0.1,0,0.1,0,0.2c0,0,0,0,0,0
					c0,0.1,0,0.2,0,0.3c0.1,1.2,0.1,2.3,0.2,3.5c0,0.2,0,0.4-0.2,0.6c-0.1,0.1-0.3,0.3-0.4,0.4c0,0,0,0.1-0.1,0.1c0,0,0,0,0,0
					c0,0,0,0-0.1,0.1c0,0,0,0,0,0c0,0,0,0,0,0.1c0,0,0,0,0,0c0,0-0.1,0.1-0.1,0.1c-0.5,0.6-0.8,1.2-1.1,1.9
					c-0.3,0.7-0.5,1.4-0.6,2.2c-0.1,1,0,2,0.4,3c0.2,0.5,0.4,1,0.8,1.5c0,0,0,0,0,0c0,0,0,0,0,0.1c0.4,0.6,1,1.2,1.7,1.6
					c0.2,0.1,0.4,0.3,0.4,0.6c0,0,0,0,0,0c0,0,0,0,0,0c0,0.1,0,0.2,0,0.3c0,0,0,0.1,0,0.1C356.3,102.8,356.3,102.9,356.2,103z
					 M360.2,101.1c-1.3,0.1-2.6-0.1-3.7-0.9c-0.1,0-0.1-0.1-0.2-0.1c0,0,0,0,0,0c0,0,0,0-0.1-0.1c-0.8-0.7-1.3-1.5-1.5-2.5
					c-0.1-0.4-0.1-0.7-0.2-1.1c0-0.1,0-0.1,0-0.2c0-1.2,0.4-2.2,1-3.2c0.3-0.4,0.6-0.8,1-1.2c0,0,0.1,0,0.1-0.1c0,0,0,0,0,0
					c0,0,0,0,0.1-0.1c0,0,0,0,0,0c0,0,0,0,0,0c0,0,0.1,0,0.1-0.1c0,0,0,0,0,0c0,0,0.1,0,0.1,0c0.3-0.2,0.5-0.4,0.8-0.6
					c1.6-1,3.3-1.5,5.1-1c1,0.2,1.8,0.7,2.5,1.5c0.2,0.3,0.4,0.6,0.6,0.8c0,0,0,0,0,0c0,0,0,0,0,0c0.6,1.2,0.6,2.5,0.3,3.7
					c-0.1,0.4-0.3,0.8-0.5,1.2c0,0-0.1,0.1-0.1,0.1c-0.4,0.7-0.8,1.2-1.4,1.7c-0.2,0.2-0.4,0.4-0.7,0.5c-0.3,0.3-0.6,0.4-0.9,0.6
					c-0.3,0.2-0.6,0.3-0.9,0.4c0,0,0,0,0,0c0,0,0,0,0,0c0,0,0,0,0,0c0,0,0,0,0,0c0,0,0,0,0,0c0,0,0,0,0,0c-0.4,0.1-0.8,0.2-1.2,0.3
					c-0.1,0-0.1,0-0.2,0C360.4,101,360.3,101.1,360.2,101.1z M362.5,104C362.6,104,362.6,104,362.5,104
					C362.6,104,362.5,104,362.5,104z M372.2,108.5c-0.1,0.1-0.1,0.4-0.3,0.4c-0.2,0-0.3-0.1-0.5-0.2c-0.3-0.1-0.6-0.2-0.9-0.4
					c-0.5-0.2-1.1-0.4-1.6-0.7c0,0,0-0.1-0.1-0.1c0,0,0-0.1,0-0.1c0-0.4,0-0.8,0.1-1.3c0-0.1,0-0.2,0-0.3c0.1-0.8,0.1-1.5,0.2-2.3
					c0-0.5,0.1-1.1,0.1-1.6c0-0.1,0-0.1,0-0.2c0,0,0-0.1,0-0.1c0-0.1,0-0.2,0-0.3c0.1-1.7,0.2-3.3,0.4-5c-0.1-0.1,0.1-0.2-0.1-0.3
					c0,0.1-0.1,0.2-0.1,0.3c-0.4,1.4-0.8,2.9-1.2,4.3c-0.1,0.4-0.2,0.7-0.3,1.1c0,0,0,0.1,0,0.1c-0.1,0.5-0.3,1-0.4,1.5
					c-0.1,0.4-0.2,0.8-0.3,1.2c0,0,0,0-0.1,0.1c-0.1,0.1-0.2,0.1-0.2,0c-0.1-0.1-0.3-0.1-0.4-0.1c-0.1,0-0.2,0-0.3-0.1
					c-0.4-0.1-0.8-0.2-1.3-0.3c0,0-0.1,0-0.1-0.1c-0.3-0.1-0.6-0.2-1-0.3c-0.1,0-0.1-0.1-0.1-0.2c0-0.2,0.1-0.4,0.1-0.6
					c0.1-0.5,0.2-1.1,0.3-1.6c0,0,0,0,0,0c0-0.2,0.2-0.4,0.4-0.5c0.9-0.7,1.7-1.5,2.2-2.5c0.2-0.3,0.3-0.5,0.4-0.8
					c0,0,0.1-0.1,0.1-0.1c0,0,0,0,0,0c0,0,0-0.1,0.1-0.1c0.4-1,0.7-2.1,0.6-3.2c0-0.6-0.1-1.2-0.3-1.8c0,0,0,0,0,0
					c0.1-0.2,0-0.3-0.1-0.4c-0.2-0.6-0.5-1.1-0.9-1.6c-0.1-0.1-0.2-0.3-0.1-0.5c0.1-0.2,0.1-0.5,0.1-0.7c0-0.1,0-0.2,0-0.2
					c0-0.1,0-0.2,0-0.3c0,0,0,0,0,0l0,0c0,0,0,0,0,0c0,0,0,0,0,0c0,0,0,0,0,0c0,0,0,0,0,0c0,0,0,0,0,0c0,0,0,0,0,0c0,0,0,0,0,0l0,0
					c0.1-0.2,0.1-0.4,0.1-0.6c0.1-0.3,0.1-0.6,0.2-0.9c0-0.1,0-0.2-0.1-0.2c-0.4-0.1-0.8-0.3-1.1-0.4c0-0.1,0-0.2,0-0.3
					c0-0.1,0-0.1,0-0.2c0,0,0,0,0,0c0.1,0,0.1-0.1,0.1-0.2c0-0.2,0-0.4,0.1-0.5c0-0.4,0.1-0.4,0.4-0.3c1.2,0.4,2.4,0.7,3.6,1.1
					c0.1,0,0.3,0.1,0.4,0c0,0,0,0,0,0c0,0,0,0,0.1,0c0.1,0,0.1,0,0.2,0.1c0,0,0,0,0.1,0c0.1,0,0.1,0,0.2,0.1c0,0,0,0,0.1,0
					c0.1,0,0.1,0,0.2,0.1c0,0,0,0,0.1,0c0.1,0,0.1,0,0.2,0.1c0,0,0,0,0.1,0c0.1,0,0.1,0,0.2,0.1c0,0,0,0,0.1,0c0,0,0.1,0,0.1,0.1
					c0,0,0,0,0,0c0,0.1,0,0.1,0,0.2c0,0,0,0,0,0.1c0,0.1,0,0.1,0,0.2c0,0,0,0.1,0,0.1c0,0.1,0,0.1,0,0.2c0,0,0,0.1,0,0.1
					c0,0.1,0,0.1,0,0.2c0,0,0,0.1,0,0.1c0,0.1,0,0.1,0,0.2c0,0,0,0,0,0.1c0,0.1,0,0.1,0,0.2c0,0.1,0,0.2,0,0.3c0,0.1,0,0.1,0,0.2
					c0,0,0,0.1,0,0.1c0,0.1,0,0.1,0,0.2c0,0,0,0.1,0,0.1c0,0,0,0.1,0,0.2c0,0,0,0.1,0,0.1c0,0,0,0.1,0,0.1c0.2,2.1,0.5,4.3,0.7,6.4
					c0,0.3,0,0.5,0.1,0.8c0-0.1,0.1-0.1,0.1-0.2c0.6-1.8,1.3-3.7,1.9-5.5c0.1-0.4,0.3-0.8,0.4-1.2c0,0,0,0,0,0
					c0.2-0.1,0.2-0.4,0.3-0.5c0,0,0-0.1,0-0.1c0,0,0-0.1,0-0.1c0,0,0-0.1,0.1-0.1c0,0,0-0.1,0-0.1c0,0,0-0.1,0-0.1
					c0.1-0.4,0.1-0.4,0.5-0.2c0.7,0.2,1.5,0.5,2.2,0.7c0.4,0.1,0.8,0.3,1.3,0.4c0,0,0,0,0.1,0c0,0,0,0,0,0c0.1,0,0.1,0,0.2,0.1
					c0,0,0,0,0.1,0c0,0,0.1,0,0.1,0.1c0,0,0,0,0,0c0,0.1,0,0.1,0,0.1c-0.5,1.1-0.9,2.1-1.4,3.2c0,0.1-0.1,0.1,0,0.2c0,0,0,0,0,0
					c0,0,0,0,0,0c-0.1,0-0.1,0.1-0.1,0.2c-0.5,1.1-1,2.3-1.5,3.4c0,0.1-0.1,0.2-0.1,0.3c0,0,0,0,0,0c-0.1,0-0.1,0.1-0.2,0.2
					c-0.5,1.1-1,2.3-1.5,3.4c0,0.1-0.1,0.2-0.1,0.3c0,0,0,0,0,0c0,0,0,0,0,0c0,0,0,0.1-0.1,0.1c0,0,0,0,0,0.1c0,0,0,0.1,0,0.1
					c0,0,0,0,0,0.1c0,0,0,0.1-0.1,0.1c0,0,0,0,0,0.1c0,0-0.1,0.1-0.1,0.1c-0.5,1-0.9,2-1.4,3c0,0.1-0.1,0.2,0,0.2c0,0,0,0,0,0
					c0,0,0,0,0,0c0,0,0,0,0,0c0,0,0,0,0,0c0,0-0.1,0.1-0.1,0.1c0,0,0,0,0,0.1c0,0.1-0.1,0.1-0.1,0.1c-0.5,0.9-0.8,1.8-1.2,2.7
					c0,0.1,0,0.1,0,0.2C372.3,108.4,372.3,108.4,372.2,108.5z"/>
				<path class="st6" d="M287.3,92.9c0,0,0-0.1,0-0.1C287.3,92.8,287.3,92.9,287.3,92.9z"/>
				<path class="st6" d="M299.8,97.4c0,0,0-0.1-0.1-0.1C299.8,97.3,299.8,97.4,299.8,97.4z"/>
				<path class="st6" d="M282.5,85.4C282.5,85.5,282.5,85.5,282.5,85.4C282.6,85.5,282.6,85.5,282.5,85.4z"/>
				<path class="st6" d="M281.8,83.9C281.8,84,281.8,84,281.8,83.9C281.9,84,281.9,83.9,281.8,83.9z"/>
				<polygon class="st6" points="326.3,79.6 326.3,79.6 326.3,79.6 				"/>
				<path class="st6" d="M335.3,73.4C335.3,73.4,335.4,73.4,335.3,73.4C335.3,73.3,335.3,73.4,335.3,73.4
					C335.3,73.4,335.3,73.4,335.3,73.4C335.3,73.4,335.2,73.4,335.3,73.4C335.3,73.5,335.3,73.4,335.3,73.4z"/>
				<path class="st6" d="M374,86.7c0,0-0.1,0-0.1,0.1C373.9,86.7,374,86.7,374,86.7z"/>
				<polygon class="st6" points="322.6,79.9 322.6,79.9 322.6,79.9 				"/>
				<polygon class="st6" points="306.4,91.5 306.4,91.5 306.4,91.5 				"/>
				<path class="st6" d="M311.7,89.1c-0.1,0.4-0.2,0.9-0.5,1.2c-0.2,0.1-0.4,0.2-0.5,0.4c-0.1,0.1-0.2,0.1-0.3,0.1
					c-0.1,0-0.3,0-0.4,0c-0.4,0-0.8-0.1-1.2-0.3c-0.3-0.2-0.5-0.5-0.7-0.9c0,0,0-0.1,0-0.1c0,0,0,0,0,0c0-0.2,0-0.4,0-0.6
					c0.1-0.1,0.1-0.1,0.1-0.2l0,0l0,0c0-0.1,0.1-0.1,0.1-0.2c0.4-0.4,0.7-0.7,1.3-0.8c0,0,0.1,0,0.1-0.1c0,0,0.1,0,0.1,0
					c-0.3-0.2-0.6-0.2-0.8-0.1c-0.1,0-0.2,0-0.3,0c-0.6,0.1-1.2,0.3-1.7,0.7c0,0.1-0.2,0.1-0.2,0.2c-0.2,0.2-0.4,0.5-0.5,0.7
					c0,0,0,0,0,0c0,0-0.1,0.1,0,0.1c-0.2,0.4-0.2,0.7-0.2,1.1c0,0.4,0.1,0.8,0.3,1.1l0,0c0,0,0,0,0,0.1c0,0,0,0,0,0.1c0,0,0,0,0,0
					c0,0,0,0,0,0l0,0c0,0,0,0,0,0c0,0,0-0.1,0-0.1c0,0,0,0.1,0,0.1c0,0,0,0.1,0.1,0.1l0,0c0,0,0,0,0,0.1l0,0c0,0,0,0,0,0.1l0,0
					c0,0,0,0,0.1,0.1c0.1,0.2,0.3,0.4,0.5,0.5c1.1,0.9,2.6,0.9,3.8,0.2c0.1,0,0.1-0.1,0.2-0.1c0.1-0.2,0.3-0.3,0.4-0.5
					c0.2-0.2,0.3-0.4,0.4-0.6c0,0,0.1-0.1,0.1-0.1c0,0,0,0,0,0C312.2,90.5,312.2,89.8,311.7,89.1C311.8,89.1,311.8,89.1,311.7,89.1z
					"/>
				<path class="st6" d="M336.4,85.9c0.2-0.2,0.2-0.2,0-0.3c-0.9-1-2-1.4-3.3-1.1c-0.5,0.1-1,0.4-1.4,0.7c-0.4,0.3-0.7,0.7-0.8,1.1
					c0,0,0,0,0,0.1c-0.1,0.1-0.1,0.2-0.2,0.3c-0.3,1.1-0.1,2.1,0.5,3c0.1,0.1,0.2,0.3,0.4,0.4c0.2,0.1,0.2,0.1,0.4,0
					c0.7-0.6,1.3-1.2,2-1.9c0.5-0.4,0.9-0.8,1.4-1.3C335.7,86.6,336,86.2,336.4,85.9z M333.2,87.2c-0.4,0.3-0.7,0.7-1.1,1
					c-0.1,0.1-0.2,0.1-0.2-0.1c-0.1-0.4-0.1-0.7,0-1.1c0.1-0.1,0.1-0.3,0.1-0.4c0.1,0,0.1-0.1,0.1-0.1c0.1-0.2,0.2-0.3,0.4-0.4
					c0.6-0.5,1.3-0.6,2.1-0.4c0,0,0,0,0,0.1c0,0,0,0,0,0c0,0,0,0,0,0c0,0,0,0,0,0c0,0.1-0.1,0.1-0.2,0.2c0,0,0,0,0,0c0,0,0,0,0,0.1
					c0,0,0,0,0,0l0,0c0,0,0,0,0,0C333.9,86.5,333.5,86.9,333.2,87.2z"/>
				<path class="st6" d="M321.4,89C321.4,89,321.3,89,321.4,89C321.3,89,321.3,89,321.4,89z"/>
				<path class="st6" d="M295,83.8c0,0.1,0,0.1,0.1,0.1c0,0.1,0,0.1,0,0.2c0.1,0.7,0.3,1.3,0.4,2c0.1,0.4,0.1,0.7,0.2,1.1
					c0,0,0,0.1,0,0.1c0,0.5,0.2,0.9,0.2,1.3c0,0.3,0.1,0.6,0.2,0.9c0,0.2,0.1,0.2,0.3,0.1c0,0,0.1-0.1,0.1-0.1
					c0.1-0.1,0.2-0.1,0.3-0.2c0.5-0.3,1.1-0.6,1.5-1c0.3-0.2,0.6-0.5,0.8-0.8c0,0,0.1,0,0.1-0.1c0.6-0.8,0.7-1.8,0.6-2.8
					c0-0.2-0.1-0.5-0.3-0.7c-0.2-0.4-0.5-0.7-0.9-1c-0.7-0.5-1.5-0.6-2.4-0.5c-0.5,0-0.9,0.2-1.4,0.3c-0.1,0-0.1,0.1-0.1,0.2
					C294.9,83.3,295,83.5,295,83.8z M299.1,87.1C299,87.1,299,87.1,299.1,87.1C299,87.1,299,87.1,299.1,87.1
					C299.1,87.1,299.1,87.1,299.1,87.1z M297.2,83.9c0.2,0,0.4,0.2,0.7,0.2c0,0,0,0,0,0c0,0,0,0,0.1,0.1c0,0,0,0,0,0c0,0,0,0,0,0
					c0,0,0,0,0,0c0,0,0,0,0,0c0,0,0,0,0,0c0,0,0,0,0,0c0,0,0,0,0,0c0,0,0,0,0,0c0,0,0,0,0,0c0,0,0,0,0,0c0,0,0,0,0,0c0,0,0,0,0,0
					c0,0,0,0,0,0c0,0,0,0,0,0.1c0,0,0,0,0,0c0,0,0,0,0,0.1c0.1,0.5,0.1,1.1-0.1,1.6c0,0,0,0.1-0.1,0.1c0,0,0,0,0,0.1
					c0,0,0,0.1,0,0.1c0,0,0,0,0,0.1c0,0.1-0.1,0.1-0.1,0.2c-0.1,0.1-0.1,0.1-0.1,0.2c0,0,0,0,0,0c0,0,0,0,0,0c0,0,0,0,0,0
					c0,0,0,0-0.1,0c0,0,0,0,0,0c0,0,0,0-0.1,0c0,0,0,0-0.1,0c-0.1,0.1-0.2,0.2-0.3,0.2c-0.1-0.1-0.1-0.3-0.2-0.4
					c0.1-0.1,0-0.2,0-0.3c-0.1-0.8-0.3-1.5-0.5-2.3c0-0.1,0-0.3-0.2-0.4C296.7,83.9,297,83.9,297.2,83.9z"/>
				<path class="st6" d="M363.1,95.8c0-0.1,0.1-0.1,0.1-0.2c0.2-0.2,0.4-0.4,0.5-0.7c0,0,0.1-0.1,0.1-0.1c0,0,0,0,0,0
					c0,0,0-0.1,0.1-0.1c0.2-0.7,0.2-1.3-0.1-2c0,0-0.1,0-0.1,0.1c0,0,0,0,0,0.1c-0.1,0.6-0.3,1-0.9,1.3c-0.1,0-0.1,0.1-0.2,0.1
					c-0.4,0.2-0.9,0.2-1.4,0c-0.4-0.1-0.7-0.4-0.9-0.6c-0.1-0.2-0.2-0.4-0.3-0.7c0-0.3,0-0.6,0.1-0.9c0-0.1,0.1-0.1,0.1-0.2
					c0.4-0.4,0.8-0.7,1.4-0.8c0.1,0,0.1,0,0.1-0.1c-0.4-0.1-0.7-0.1-1.1-0.1c-0.7,0-1.3,0.3-1.9,0.8c0,0-0.1,0.1-0.1,0.1
					c-0.3,0.3-0.5,0.6-0.6,1c-0.1,0.1-0.1,0.2-0.1,0.3l0,0c0,0,0,0,0,0c-0.1,0.4-0.1,0.8,0,1.1c0,0,0,0,0,0c0,0.1,0,0.1,0,0.2l0,0
					c0,0,0,0.1,0,0.1c0.1,0.2,0.2,0.5,0.3,0.7l0,0c0,0,0,0,0,0.1l0,0c0,0,0,0,0,0.1l0,0c0,0,0,0,0.1,0.1c0,0,0.1,0.1,0.1,0.1
					c0.8,1,2.2,1.3,3.5,0.9C362.5,96.3,362.8,96.1,363.1,95.8z"/>
				<polygon class="st6" points="361.9,100.8 361.9,100.8 361.9,100.8 				"/>
			</g>
			<g>
				<path class="st7" d="M311.8,89.1C311.8,89.1,311.8,89.1,311.8,89.1c0-0.1,0-0.1,0-0.2C311.7,89,311.7,89.1,311.8,89.1z"/>
				<path class="st7" d="M369.8,95.8C369.8,95.7,369.8,95.7,369.8,95.8C369.8,95.7,369.8,95.7,369.8,95.8c0,0.1-0.1,0.2-0.1,0.3
					c0.1,0.1,0,0.2,0.1,0.3C369.8,96.2,369.8,96,369.8,95.8z"/>
				<path class="st7" d="M363.7,92.6c0,0.1,0,0.1,0,0.2c0,0,0,0,0.1,0C363.8,92.7,363.8,92.6,363.7,92.6z"/>
				<path class="st7" d="M334.7,85.7L334.7,85.7C334.7,85.7,334.7,85.7,334.7,85.7C334.7,85.7,334.7,85.7,334.7,85.7
					c-0.4-0.2-0.8-0.2-1.2-0.2c-0.4,0.1-0.8,0.2-1.1,0.5c0.1,0,0.2,0,0.4,0c0.5-0.1,1,0,1.4,0.2c0,0,0,0,0,0l0,0c0,0,0,0,0.1,0
					c0.1-0.1,0.2-0.1,0.2-0.2c0,0,0.1,0,0.1,0C334.8,85.8,334.8,85.8,334.7,85.7L334.7,85.7z"/>
				<path class="st7" d="M298.4,84.5L298.4,84.5C298.4,84.5,298.4,84.5,298.4,84.5L298.4,84.5c-0.1-0.1-0.1-0.1-0.1-0.1l0,0
					c0,0,0,0,0-0.1l0,0c0,0,0,0-0.1-0.1l0,0c0,0,0,0-0.1-0.1l0,0c0,0-0.1,0-0.1-0.1c0,0-0.1,0-0.1-0.1l0,0c0,0-0.1,0-0.1-0.1l0,0
					c-0.1,0-0.2-0.1-0.3-0.1c-0.3-0.1-0.6-0.2-0.9-0.1c-0.1,0-0.1,0.1-0.1,0.2c0,0.1,0.1,0.3,0.1,0.4c0.2,0,0.4,0.1,0.5,0.2
					c0.3,0.2,0.6,0.4,0.7,0.8c0.1,0.5,0.1,1-0.2,1.5c-0.1,0.2-0.1,0.2,0,0.3c0,0,0,0,0.1,0c0,0,0,0,0.1,0l0,0c0,0,0,0,0.1-0.1l0,0
					c0,0,0,0,0.1-0.1l0,0c0-0.1,0.1-0.1,0.1-0.2c0.1-0.1,0.1-0.1,0.1-0.2c0.1,0,0.1-0.1,0.1-0.1c0.1,0,0.1-0.1,0.1-0.1c0,0,0,0,0,0
					s0,0,0,0c0.1-0.1,0.1-0.1,0.1-0.2C298.5,85.6,298.6,85.1,298.4,84.5C298.4,84.6,298.4,84.6,298.4,84.5z"/>
			</g>
		</g>
	</g>
</g>
</svg>
